<svg xmlns="http://www.w3.org/2000/svg" viewBox="0 0 747.19 940.4"><defs><style>.cls-1{fill:#fcab58;}.cls-2{fill:#1e255e;}.cls-3{fill:#b5e4ff;}.cls-4{fill:#439ed1;}.cls-5{fill:#fff;}</style></defs><g id="Layer_2" data-name="Layer 2"><g id="Layer_2-2" data-name="Layer 2"><path class="cls-1" d="M263,418.34h2.88a3.13,3.13,0,0,1,2.22,5.35,3.11,3.11,0,0,1-2.22.93H252.35a3.15,3.15,0,0,1-3.14-3.14,3.14,3.14,0,0,1,3.14-3.14H263Z"/><path class="cls-2" d="M306.46,412V473h-7.15V412a2.66,2.66,0,0,1,2.66-2.67h1.83A2.66,2.66,0,0,1,306.46,412Z"/><path class="cls-2" d="M348.36,928.75l.51-.51.06,0,.88,12.11h-36c0-8.83-16.68-8.83-16.68,0H230.9V928.75Z"/><path class="cls-2" d="M275,896.58l.5-.23.25.54,24.76,2.83a14.89,14.89,0,0,0,25.46,3.35l.06.06L348.51,906h.56c0,13.78,0,22,0,22l-.24.24-.51.51H230.9s-4.73-4.58-3.28-7.47,4.58-4.47,7.51-5.85Z"/><path class="cls-3" d="M300.46,899.72a14.61,14.61,0,0,1-1.19-5.81,14.93,14.93,0,1,1,1.19,5.81Z"/><path class="cls-4" d="M275.45,896.35l-.5.23v-44.4h74c0,21.57.07,40.34.09,53.81h-.56L326,903.13l-.06-.06a14.9,14.9,0,1,0-26.65-9.16,14.61,14.61,0,0,0,1.19,5.81l-24.76-2.83Z"/><path class="cls-4" d="M349,852.18H275V819h74C349,830.51,349,841.67,349,852.18Z"/><circle class="cls-3" cx="298.05" cy="792.14" r="17.2" transform="translate(-540.85 904.18) rotate(-76.99)"/><path class="cls-1" d="M348.93,819H275V768h73.89C348.87,785.17,348.9,802.45,348.93,819Zm-33.68-26.83a17.2,17.2,0,1,0-17.2,17.2A17.2,17.2,0,0,0,315.25,792.14Z"/><path class="cls-4" d="M348.84,768H275V736.09h73.83C348.8,746.54,348.82,757.23,348.84,768Z"/><path class="cls-4" d="M348.78,736.09H275V700.26h73.77C348.74,711.66,348.76,723.71,348.78,736.09Z"/><path class="cls-4" d="M334.44,666.2h14.22c0,10.31,0,21.8.06,34.06H275V666.2h59.49Z"/><path class="cls-4" d="M182.41,209.88c2,21.13-11.14,42.1-30.48,50.54a50.83,50.83,0,0,1-17.55,4.09A55.31,55.31,0,0,1,118,262.94c-1.41-.35-2.89-.72-4.31-1.2l.16-.5q3.94-13.61,7.88-27.22v-.09a28.75,28.75,0,0,0,12.83-1.08,29.8,29.8,0,0,0,19.91-25.31C166.11,208.47,174.26,209.18,182.41,209.88Z"/><path class="cls-5" d="M59.8,227.85a5,5,0,1,1-5,5A5,5,0,0,1,59.8,227.85Z"/><path class="cls-4" d="M116.46,149.79c1.48,8,3,16.09,5,27.56A29.76,29.76,0,0,0,98.17,199.6a28.68,28.68,0,0,0,.15,12.87l-.09,0L71.89,222.92l-.43.19A53.66,53.66,0,0,1,69.07,185C75.61,164.91,95.23,149.84,116.46,149.79Z"/><path class="cls-2" d="M108,228.37a30.31,30.31,0,0,0,13.74,5.56V234q-3.94,13.6-7.88,27.22l-.16.5a18.64,18.64,0,0,1-3.19-1.39,6.13,6.13,0,0,0-1.44-.59c-11.16-9.08-22-18.61-33.51-29l0,0a54.27,54.27,0,0,1-4.15-7.6l.43-.19,26.34-10.43.09,0A29.81,29.81,0,0,0,108,228.37Z"/><path class="cls-5" d="M108.93,268.54a5,5,0,1,1-5,5A5,5,0,0,1,108.93,268.54Z"/><path class="cls-1" d="M106.54,256.37c5.16,4.2,10.4,8.3,15.81,12.35a5.45,5.45,0,0,1,1,7.75L112,290.83l-.27-.28-3.89-3.44c-19-16.72-39.31-31.92-59.09-47.73l-3-2.38a5.46,5.46,0,0,1-1-7.41l8.48-11.93a5.45,5.45,0,0,1,8.11-.88c4,3.64,7.89,7.16,11.7,10.59C84.57,237.76,95.38,247.29,106.54,256.37Zm7.36,17.15a5,5,0,1,0-5,5A5,5,0,0,0,113.9,273.52ZM64.77,232.83a5,5,0,1,0-5,5A5,5,0,0,0,64.77,232.83Z"/><path class="cls-4" d="M81.69,296c-8.94-.32-17.82-3.47-24.34-9.16a38.35,38.35,0,0,1-11.93-20.56,39.44,39.44,0,0,1,3.29-26.87c19.78,15.81,40.08,31,59.09,47.73C100.85,293.49,91.23,296.33,81.69,296Z"/><path class="cls-2" d="M81.69,296a132.54,132.54,0,0,0-19.83,30L18.4,302.49l-.19-.1a160.85,160.85,0,0,1,27.21-36.14,38.35,38.35,0,0,0,11.93,20.56C63.87,292.5,72.75,295.65,81.69,296Z"/><path class="cls-2" d="M18.4,302.49,61.86,326a92.61,92.61,0,0,0-7.7,24.37,75.46,75.46,0,0,0-.91,9A392.8,392.8,0,0,1,2.71,348.56a133.69,133.69,0,0,1,15.5-46.17Z"/><path class="cls-2" d="M53.25,359.37A72.61,72.61,0,0,0,57.42,387c-17.33,1.86-34.68,3.62-52,5.38a112.51,112.51,0,0,1-3.27-38.66c.16-1.72.35-3.44.58-5.15A392.8,392.8,0,0,0,53.25,359.37Z"/><path class="cls-1" d="M62.64,397.91l-.31.18c-8.88,14.78-17.76,29.55-26.8,44.22-14.9-13-25.07-30.74-30.13-49.94,17.34-1.76,34.69-3.52,52-5.38A61.51,61.51,0,0,0,62.64,397.91Z"/><path class="cls-2" d="M88.58,420.16q-6,21.87-11.92,43.73c-14.43-4.13-28.12-10.7-39.61-20.27-.51-.43-1-.86-1.52-1.31,9-14.67,17.92-29.44,26.8-44.22l.31-.18a53.91,53.91,0,0,0,25.94,22.25Z"/><path class="cls-2" d="M118.74,424.69a372.16,372.16,0,0,1-.08,44.56,128.32,128.32,0,0,1-24-1.47,140.71,140.71,0,0,1-18-3.89q6-21.87,11.92-43.73A64.36,64.36,0,0,0,118.74,424.69Z"/><path class="cls-2" d="M171.92,448.2l0,0A71.58,71.58,0,0,1,141,465.86a94,94,0,0,1-22.32,3.39,372.16,372.16,0,0,0,.08-44.56,63.76,63.76,0,0,0,7.56-1.11,72.16,72.16,0,0,0,18.27-6.52Q157.92,432.92,171.92,448.2Z"/><path class="cls-3" d="M144.57,417.06q-12.39-14.71-24.2-29.88c-.7-1,59.6-1,59.6-1h.75V457.7q-4.44-4.72-8.8-9.5Q157.91,432.92,144.57,417.06Z"/><path class="cls-3" d="M435.55,774.94a17.2,17.2,0,1,1-17.21,17.2A17.19,17.19,0,0,1,435.55,774.94Z"/><path class="cls-2" d="M383.79,940.4l.89-12.11.05,0,.51.51H502.7V940.4H436.47c0-8.83-16.66-8.83-16.66,0Z"/><path class="cls-2" d="M458.65,896.58l39.83,18.85c2.92,1.38,6,3,7.5,5.85s-3.28,7.47-3.28,7.47H385.24l-.51-.51-.24-.24s0-8.23,0-22h.56l22.53-2.86.06,0a14.9,14.9,0,0,0,25.46-3.36l24.75-2.83.26-.54Z"/><path class="cls-3" d="M433.14,899.72a14.89,14.89,0,1,1,1.19-5.81A14.61,14.61,0,0,1,433.14,899.72Z"/><path class="cls-4" d="M458.15,896.35l-.26.54-24.75,2.83a14.61,14.61,0,0,0,1.19-5.81,14.91,14.91,0,1,0-26.65,9.17l-.06,0L385.09,906h-.56c0-13.47.05-32.24.09-53.81h74v44.4Z"/><path class="cls-3" d="M511.11,624.37a10.32,10.32,0,1,1-10.32,10.32A10.32,10.32,0,0,1,511.11,624.37Z"/><path class="cls-2" d="M458.65,666.2H401.82l-.27-35.68a27.21,27.21,0,0,1,27-27.41c44.18-.25,126.54-.25,126.54-.25h.41v16.61a46.73,46.73,0,0,1-46.73,46.73Zm62.77-31.51A10.32,10.32,0,1,0,511.11,645,10.32,10.32,0,0,0,521.42,634.69Z"/><path class="cls-4" d="M458.65,819v33.21h-74c0-10.51,0-21.67.06-33.21h74Z"/><path class="cls-1" d="M458.65,768v51h-74c0-16.52.06-33.8.08-51h73.89Zm-5.91,24.19a17.2,17.2,0,1,0-17.19,17.2A17.19,17.19,0,0,0,452.74,792.14Z"/><path class="cls-4" d="M458.65,736.09V768H384.76c0-10.72,0-21.41.06-31.86Z"/><path class="cls-4" d="M458.65,700.26v35.83H384.82c0-12.38,0-24.43.06-35.83Z"/><path class="cls-4" d="M401.82,666.2h56.83v34.06H384.88c0-12.26,0-23.75.06-34.06Z"/><path class="cls-3" d="M225.16,624.37a10.32,10.32,0,1,1-10.33,10.32A10.31,10.31,0,0,1,225.16,624.37Z"/><path class="cls-2" d="M275,666.2h-47.5a46.73,46.73,0,0,1-46.73-46.73V602.86h.41s82.36,0,126.53.25a27.21,27.21,0,0,1,27,27.41l-.27,35.68H275Zm-39.48-31.51A10.32,10.32,0,1,0,225.16,645,10.31,10.31,0,0,0,235.47,634.69Z"/><path class="cls-2" d="M180.88,573.45H327v.31a14.76,14.76,0,0,0,14.76,14.76h52.7a14.76,14.76,0,0,0,14.76-14.76v-.31h146.3v29.41h-.41s-82.36,0-126.54.25a27.21,27.21,0,0,0-27,27.41l.27,35.68H334.44l.27-35.68a27.21,27.21,0,0,0-27-27.41c-44.17-.25-126.53-.25-126.53-.25h-.41V573.45Z"/><path class="cls-5" d="M734.19,269a5,5,0,1,1-6.62,2.42A5,5,0,0,1,734.19,269Z"/><path class="cls-2" d="M284.2,412v34h-7.15V412a2.66,2.66,0,0,1,2.66-2.67h1.83A2.66,2.66,0,0,1,284.2,412Z"/><path class="cls-4" d="M675.17,247.52l0,.1-4.35,28,0,.52c-1.49-.16-3-.45-4.43-.73a55.45,55.45,0,0,1-15.49-5.48,50.73,50.73,0,0,1-14.18-11.12c-14-15.81-17-40.35-6.3-58.68,7.69,2.8,15.37,5.6,26.29,9.66A29.79,29.79,0,0,0,664,241.13,28.57,28.57,0,0,0,675.17,247.52Z"/><path class="cls-1" d="M299.31,473h10.13a3.14,3.14,0,0,1,0,6.28H295.9a3.14,3.14,0,0,1,0-6.28Z"/><path class="cls-5" d="M672.47,285.12a5,5,0,1,1-6.61,2.4A5,5,0,0,1,672.47,285.12Z"/><path class="cls-4" d="M715.49,173.48c19.22,9,30.65,31,28.12,51.89A53.67,53.67,0,0,1,725.33,259l-.3-.36L705.56,238l-.08-.07a28.48,28.48,0,0,0,5.57-11.6,29.77,29.77,0,0,0-11.73-30C706,186.82,710.75,180.16,715.49,173.48Z"/><path class="cls-2" d="M690,248.29A29.9,29.9,0,0,0,705.48,238l.08.07L725,258.6l.3.36a54.49,54.49,0,0,1-7,5.13v.05c-14.85,4.56-28.67,8.63-42.63,12.14a7.27,7.27,0,0,0-1.54-.06,18.37,18.37,0,0,1-3.47-.09l0-.52,4.35-28,0-.1a30.39,30.39,0,0,0,14.82.77Z"/><path class="cls-1" d="M739.37,284.08c-24.61,6-49.44,11.21-73.73,18.34l-5,1.48-.36.14L656,286.2a5.45,5.45,0,0,1,4.2-6.59c6.62-1.38,13.09-2.9,19.54-4.53,14-3.51,27.78-7.59,42.63-12.14,4.9-1.5,9.91-3.06,15.07-4.66a5.46,5.46,0,0,1,7,4.21l2.65,14.41a5.45,5.45,0,0,1-4,6.28C741.83,283.48,740.6,283.79,739.37,284.08Zm-2.78-8.5A5,5,0,1,0,730,278,5,5,0,0,0,736.59,275.58Zm-61.71,16.15a5,5,0,1,0-6.61,2.41A5,5,0,0,0,674.88,291.73Z"/><path class="cls-4" d="M685.59,321.48c-8.8-3.7-16.33-10.34-20-19.06,24.29-7.13,49.12-12.34,73.73-18.34A39.39,39.39,0,0,1,731,309.83a38.29,38.29,0,0,1-19.5,13.62C703.2,325.85,693.83,325,685.59,321.48Z"/><path class="cls-2" d="M740.42,354.09h-.22L690.91,357a133.58,133.58,0,0,0-5.32-35.56c8.24,3.48,17.61,4.37,25.92,2A38.29,38.29,0,0,0,731,309.83,160.94,160.94,0,0,1,740.42,354.09Z"/><path class="cls-2" d="M740.42,354.09a133.2,133.2,0,0,1-5.44,48.4A391.16,391.16,0,0,1,684.61,391a75.58,75.58,0,0,0,3-8.57A92.85,92.85,0,0,0,690.91,357l49.29-2.94Z"/><path class="cls-2" d="M735,402.49q-.76,2.47-1.64,4.91a112.31,112.31,0,0,1-19.28,33.66q-22.47-13.35-44.89-26.83A72.45,72.45,0,0,0,684.61,391,391.16,391.16,0,0,0,735,402.49Z"/><path class="cls-1" d="M714.06,441.06c-12.69,15.28-29.39,27.07-48.39,32.56-2-17.11-3.83-34.25-5.64-51.39l-.2-.29a61.93,61.93,0,0,0,9.34-7.71Q691.57,427.76,714.06,441.06Z"/><path class="cls-2" d="M284.2,452.33v35.06a2.66,2.66,0,0,1-2.66,2.66h-1.83a2.66,2.66,0,0,1-2.66-2.66V452.33Z"/><path class="cls-5" d="M458.85,412.73a18.44,18.44,0,0,1,18.44,18.44V474a18.44,18.44,0,0,1-18.44,18.44h-73A18.45,18.45,0,0,1,367.43,474V431.17a18.45,18.45,0,0,1,18.44-18.44Z"/><path class="cls-1" d="M367.43,474a18.45,18.45,0,0,0,18.44,18.44h73A18.44,18.44,0,0,0,477.29,474V431.17a18.44,18.44,0,0,0-18.44-18.44h-73a18.45,18.45,0,0,0-18.44,18.44V474Zm113.13-42.79V474a21.73,21.73,0,0,1-21.71,21.7h-73A21.73,21.73,0,0,1,364.16,474V431.17a21.73,21.73,0,0,1,21.71-21.7h73A21.73,21.73,0,0,1,480.56,431.17Z"/><path class="cls-2" d="M665.67,473.62l-1.94.54c-14.46,3.83-29.63,4-44.45,1.67q3.79-22.33,7.64-44.68a53.89,53.89,0,0,0,32.91-9.21l.2.29C661.84,439.37,663.66,456.51,665.67,473.62Z"/><path class="cls-2" d="M626.92,431.15q-3.82,22.35-7.64,44.68a140.68,140.68,0,0,1-18-4.08,128.82,128.82,0,0,1-22.37-8.8,373.59,373.59,0,0,1,18.74-40.41A64.43,64.43,0,0,0,626.92,431.15Z"/><path class="cls-2" d="M591.28,418.34a66.22,66.22,0,0,0,6.38,4.2A373.59,373.59,0,0,0,578.92,463a94.13,94.13,0,0,1-18.79-12.48l-1.43-1.21q15.07-16.39,29.39-33.46l.53.45C589.49,417,590.37,417.66,591.28,418.34Z"/><path class="cls-2" d="M306.46,479.23v8.16a2.66,2.66,0,0,1-2.66,2.66H302a2.66,2.66,0,0,1-2.66-2.66v-8.16Z"/><polygon class="cls-3" points="327.02 558.26 327.02 573.45 180.88 573.45 180.72 573.45 180.72 558.26 181.21 558.26 327.02 558.26"/><path class="cls-3" d="M558.7,449.26q-1.58,1.73-3.16,3.44V386.16c13.34,0,56.28.16,55.69,1q-11.31,14.52-23.14,28.62Q573.78,432.86,558.7,449.26Z"/><path class="cls-1" d="M284.2,446.05h2.69a3.14,3.14,0,0,1,2.22,5.36,3.18,3.18,0,0,1-2.22.92H273.35a3.14,3.14,0,0,1,0-6.28H284.2Z"/><path class="cls-2" d="M263,412v6.31h-7.15V412a2.67,2.67,0,0,1,2.67-2.67h1.83A2.66,2.66,0,0,1,263,412Z"/><path class="cls-2" d="M263,424.62v62.77a2.66,2.66,0,0,1-2.65,2.66h-1.83a2.67,2.67,0,0,1-2.67-2.66V424.62Z"/><path class="cls-3" d="M255.85,424.76v62.63a2.67,2.67,0,0,0,2.67,2.66h1.83a2.66,2.66,0,0,0,2.65-2.66V424.62h2.88a3.16,3.16,0,0,0,3.14-3.14,3.15,3.15,0,0,0-3.14-3.14H263V412a2.66,2.66,0,0,0-2.65-2.67h-1.83a2.67,2.67,0,0,0-2.67,2.67v6.31h-3.5a3.14,3.14,0,0,0-3.14,3.14,3.15,3.15,0,0,0,3.14,3.14h3.5Zm255.33-13.95v83.5a25.56,25.56,0,0,1-25.56,25.56H258a25.56,25.56,0,0,1-25.56-25.56v-83.5A25.56,25.56,0,0,1,258,385.26H485.62A25.55,25.55,0,0,1,511.18,410.81ZM480.56,474V431.17a21.73,21.73,0,0,0-21.71-21.7h-73a21.73,21.73,0,0,0-21.71,21.7V474a21.73,21.73,0,0,0,21.71,21.7h73A21.73,21.73,0,0,0,480.56,474Zm-168,2.13a3.16,3.16,0,0,0-3.14-3.14h-3V412a2.66,2.66,0,0,0-2.66-2.67H302a2.66,2.66,0,0,0-2.66,2.67V473H295.9a3.14,3.14,0,1,0,0,6.28h3.41v8.16a2.66,2.66,0,0,0,2.66,2.66h1.83a2.66,2.66,0,0,0,2.66-2.66v-8.16h3a3.14,3.14,0,0,0,3.14-3.14ZM290,449.19a3.15,3.15,0,0,0-3.14-3.14H284.2V412a2.66,2.66,0,0,0-2.66-2.67h-1.83a2.66,2.66,0,0,0-2.66,2.67v34h-3.7a3.14,3.14,0,0,0,0,6.28h3.7v35.06a2.66,2.66,0,0,0,2.66,2.66h1.83a2.66,2.66,0,0,0,2.66-2.66V452.33h2.69a3.18,3.18,0,0,0,2.22-.92A3.14,3.14,0,0,0,290,449.19Z"/><polygon class="cls-3" points="555.54 558.26 555.54 573.45 409.24 573.45 409.24 558.26 555.31 558.26 555.54 558.26"/><path class="cls-1" d="M518.82,410.81v83.5a33.24,33.24,0,0,1-33.2,33.21H258a33.25,33.25,0,0,1-33.2-33.21v-83.5a33.24,33.24,0,0,1,33.2-33.2H485.62A33.23,33.23,0,0,1,518.82,410.81Zm-7.64,83.5v-83.5a25.55,25.55,0,0,0-25.56-25.55H258a25.56,25.56,0,0,0-25.56,25.55v83.5A25.56,25.56,0,0,0,258,519.87H485.62A25.56,25.56,0,0,0,511.18,494.31Z"/><path class="cls-3" d="M327,573.45v-16a14.75,14.75,0,0,1,14.76-14.75h52.7a14.75,14.75,0,0,1,14.76,14.75v16.35a14.76,14.76,0,0,1-14.76,14.76h-52.7A14.76,14.76,0,0,1,327,573.76Z"/><path class="cls-4" d="M180.72,457.7V383a46.73,46.73,0,0,1,46.73-46.72H508.81A46.73,46.73,0,0,1,555.54,383V558.26H409.24v-.85a14.75,14.75,0,0,0-14.76-14.75h-52.7A14.75,14.75,0,0,0,327,557.41v.85H180.72Zm338.1,36.61v-83.5a33.23,33.23,0,0,0-33.2-33.2H258a33.24,33.24,0,0,0-33.2,33.2v83.5A33.25,33.25,0,0,0,258,527.52H485.62A33.24,33.24,0,0,0,518.82,494.31Z"/><path class="cls-2" d="M410.69,310v26.36H325.57V310c4.22-.08,8.46-.23,12.56.05h45.61Q397.26,310.05,410.69,310Z"/><polygon class="cls-2" points="434.95 146.16 443.58 170.82 433.18 193.55 424.19 170.76 434.95 146.16"/><path class="cls-5" d="M433.37,139.81a28.66,28.66,0,1,1-28.66,28.66A28.66,28.66,0,0,1,433.37,139.81Zm10.21,31L435,146.16l-10.76,24.6,9,22.79Z"/><path class="cls-2" d="M433.37,133.85a34.62,34.62,0,1,1-34.62,34.62A34.62,34.62,0,0,1,433.37,133.85ZM462,168.47a28.66,28.66,0,1,0-28.66,28.66A28.66,28.66,0,0,0,462,168.47Z"/><path class="cls-1" d="M497.36,190.69a25.22,25.22,0,1,1-.39,8.89,26.58,26.58,0,0,1-.22-3.36A25.19,25.19,0,0,1,497.36,190.69Z"/><polygon class="cls-2" points="301.31 146.16 312.07 170.76 303.08 193.55 292.68 170.82 301.31 146.16"/><path class="cls-5" d="M302.89,139.81a28.66,28.66,0,1,1-28.66,28.66A28.66,28.66,0,0,1,302.89,139.81Zm9.18,30.95-10.76-24.6-8.63,24.66,10.4,22.73Z"/><path class="cls-2" d="M302.89,133.85a34.62,34.62,0,1,1-34.62,34.62A34.62,34.62,0,0,1,302.89,133.85Zm28.66,34.62a28.66,28.66,0,1,0-28.66,28.66A28.66,28.66,0,0,0,331.55,168.47Z"/><path class="cls-5" d="M412.91,274.49v-46.3h2.27a14.74,14.74,0,0,1,14.75,14.74v17.14a14.74,14.74,0,0,1-14.75,14.74h-2.27Z"/><polygon class="cls-5" points="369.67 274.49 369.67 228.79 369.67 228.19 384.08 228.19 384.08 228.79 384.08 274.49 384.08 274.81 369.67 274.81 369.67 274.49"/><polygon class="cls-3" points="370.14 174.53 384.17 217.58 352.09 217.58 366.12 174.53 370.14 174.53"/><path class="cls-3" d="M363.31,50a25.21,25.21,0,1,1,8.89.14,26,26,0,0,1-5.17.3A26.63,26.63,0,0,1,363.31,50Z"/><path class="cls-2" d="M372.2,50.13l.28,24.14h-8.89L363.31,50a26.63,26.63,0,0,0,3.72.44A26,26,0,0,0,372.2,50.13Z"/><path class="cls-4" d="M251.4,124.22h-.88v-.35a49.54,49.54,0,0,1,49.55-49.6H436.19a49.54,49.54,0,0,1,49.55,49.6v.35H410.59a21.16,21.16,0,0,0-21.15,21.16v82.81H346.82V145.38a21.16,21.16,0,0,0-21.16-21.16Zm132.77,93.36-14-43.05h-4l-14,43.05Z"/><path class="cls-2" d="M485.6,190.69h11.76a25.19,25.19,0,0,0-.61,5.53,26.58,26.58,0,0,0,.22,3.36H485.58C485.59,196.62,485.6,193.65,485.6,190.69Z"/><path class="cls-5" d="M326.42,274.49v.32h-1.13a14.74,14.74,0,0,1-14.75-14.74V242.93a14.74,14.74,0,0,1,14.75-14.74h1.13v46.3Z"/><path class="cls-1" d="M237.84,199.58a25.19,25.19,0,1,1-.38-8.89,25.81,25.81,0,0,1,.6,5.53A24.84,24.84,0,0,1,237.84,199.58Z"/><polygon class="cls-5" points="326.42 274.49 326.42 228.79 326.42 228.19 340.84 228.19 340.84 228.79 340.84 274.49 340.84 274.81 326.42 274.81 326.42 274.49"/><polygon class="cls-5" points="355.25 274.49 355.25 228.79 355.25 228.19 369.67 228.19 369.67 228.79 369.67 274.49 369.67 274.81 355.25 274.81 355.25 274.49"/><path class="cls-2" d="M250.68,199.58H237.84a24.84,24.84,0,0,0,.22-3.36,25.81,25.81,0,0,0-.6-5.53h13.2C250.66,193.65,250.68,196.62,250.68,199.58Z"/><polygon class="cls-5" points="384.08 274.49 384.08 228.79 384.08 228.19 389.44 228.19 398.5 228.19 398.5 228.79 398.5 274.49 398.5 274.81 384.08 274.81 384.08 274.49"/><polygon class="cls-5" points="398.5 274.49 398.5 228.79 398.5 228.19 412.91 228.19 412.91 228.79 412.91 274.49 412.91 274.81 398.5 274.81 398.5 274.49"/><polygon class="cls-5" points="340.84 274.49 340.84 228.79 340.84 228.19 346.82 228.19 355.25 228.19 355.25 228.79 355.25 274.49 355.25 274.81 340.84 274.81 340.84 274.49"/><path class="cls-4" d="M250.68,199.58c0-3,0-5.93,0-8.89-.07-23.46-.11-46.86-.14-66.47h75.14a21.16,21.16,0,0,1,21.16,21.16v82.81H325.29a14.74,14.74,0,0,0-14.75,14.74v17.14a14.74,14.74,0,0,0,14.75,14.74h89.89a14.74,14.74,0,0,0,14.75-14.74V242.93a14.74,14.74,0,0,0-14.75-14.74H389.44V145.38a21.16,21.16,0,0,1,21.15-21.16h75.15c0,19.61-.07,43-.14,66.47,0,3,0,5.93,0,8.89-.07,21.65-.17,42.94-.3,60.89a49.53,49.53,0,0,1-48.66,49.17q-13,.24-25.93.32-13.45.1-26.95.09H338.13c-4.1-.28-8.34-.13-12.56-.05-1.94,0-3.87.07-5.78,0l-20.15-.39A49.53,49.53,0,0,1,251,260.47C250.85,242.52,250.75,221.23,250.68,199.58ZM468,168.47a34.62,34.62,0,1,0-34.62,34.62A34.62,34.62,0,0,0,468,168.47Zm-130.48,0a34.62,34.62,0,1,0-34.62,34.62A34.62,34.62,0,0,0,337.51,168.47Z"/></g><g id="Layer_3" data-name="Layer 3"><path class="cls-2" d="M326.42,276.25a1.58,1.58,0,0,1-1.58-1.58V228a1.58,1.58,0,0,1,3.15,0v46.63A1.57,1.57,0,0,1,326.42,276.25Z"/><path class="cls-2" d="M340.84,276.25a1.58,1.58,0,0,1-1.58-1.58V228a1.58,1.58,0,0,1,3.15,0v46.63A1.57,1.57,0,0,1,340.84,276.25Z"/><path class="cls-2" d="M355.25,276.25a1.57,1.57,0,0,1-1.57-1.58V228a1.58,1.58,0,0,1,3.15,0v46.63A1.58,1.58,0,0,1,355.25,276.25Z"/><path class="cls-2" d="M369.67,276.25a1.58,1.58,0,0,1-1.58-1.58V228a1.58,1.58,0,0,1,3.15,0v46.63A1.57,1.57,0,0,1,369.67,276.25Z"/><path class="cls-2" d="M384.08,276.25a1.57,1.57,0,0,1-1.57-1.58V228a1.58,1.58,0,0,1,3.15,0v46.63A1.58,1.58,0,0,1,384.08,276.25Z"/><path class="cls-2" d="M398.5,276.25a1.58,1.58,0,0,1-1.58-1.58V228a1.58,1.58,0,0,1,3.15,0v46.63A1.57,1.57,0,0,1,398.5,276.25Z"/><path class="cls-2" d="M412.91,276.25a1.57,1.57,0,0,1-1.57-1.58V228a1.58,1.58,0,0,1,3.15,0v46.63A1.58,1.58,0,0,1,412.91,276.25Z"/><path class="cls-2" d="M346.82,229.42a1.58,1.58,0,0,1-1.58-1.58V145.38a19.6,19.6,0,0,0-19.58-19.58H251.4a1.58,1.58,0,0,1,0-3.15h74.26a22.75,22.75,0,0,1,22.73,22.73v82.46A1.57,1.57,0,0,1,346.82,229.42Z"/><path class="cls-2" d="M389.44,229.42a1.57,1.57,0,0,1-1.57-1.58V145.38a22.75,22.75,0,0,1,22.73-22.73h74.26a1.58,1.58,0,0,1,0,3.15H410.6A19.6,19.6,0,0,0,391,145.38v82.46A1.58,1.58,0,0,1,389.44,229.42Z"/><path class="cls-2" d="M409.42,478.31c-1.85,0-4-1.42-4.57-4.62l-.94-5c-.26-1.4-.94-2-1.46-2.05h0c-.51,0-1.15.59-1.44,1.91L400,473c-.73,3.34-3,4.46-4.68,4.37-1.91-.08-4-1.67-4.48-5l-4-30.57c-.21-1.56-.93-2.28-1.51-2.29h0c-.54,0-1.23.65-1.48,2.08l-4.64,26.22c-.58,3.28-2.8,4.74-4.65,4.69s-4.09-1.58-4.57-4.95l-3.58-25.24a1.58,1.58,0,1,1,3.12-.45l3.58,25.24c.22,1.53.93,2.24,1.5,2.25s1.24-.64,1.5-2.09L380.74,441c.59-3.3,2.74-4.77,4.67-4.69s4.11,1.62,4.56,5L394,472c.2,1.54.92,2.27,1.5,2.29s1.17-.56,1.47-1.9l1-4.47c.6-2.7,2.43-4.46,4.59-4.38s4,1.85,4.51,4.62l.93,5c.27,1.41.95,2.05,1.48,2.05h0c.55,0,1.24-.67,1.49-2.11l4.52-26.41c.56-3.28,2.71-4.74,4.59-4.74h0c1.91,0,4.06,1.51,4.59,4.83l3.48,21.88c.24,1.49.94,2.17,1.5,2.17h0c.59,0,1.31-.74,1.51-2.32l2-16.23c.41-3.25,2.45-4.88,4.29-5.06,2-.2,3.89,1.23,4.68,3.64.32.95.85,1.54,1.38,1.49s1.22-.72,1.45-2.13l1.25-7.5c.55-3.29,2.7-4.76,4.59-4.77h0c1.88,0,4,1.46,4.59,4.72l4.28,24.64c.25,1.47.94,2.15,1.5,2.11s1.35-.85,1.51-2.41l1.68-15.6c.35-3.31,2.39-5,4.26-5.2,2-.23,3.9,1.18,4.71,3.58l4.89,14.48a1.57,1.57,0,1,1-3,1l-4.9-14.48c-.32-.94-.85-1.5-1.38-1.46s-1.31.92-1.47,2.41l-1.67,15.6c-.38,3.51-2.56,5.15-4.55,5.22s-4.13-1.38-4.71-4.72l-4.27-24.65c-.25-1.44-.95-2.1-1.49-2.1h0c-.55,0-1.25.67-1.49,2.13l-1.25,7.51c-.45,2.72-2.15,4.59-4.32,4.75-2,.18-3.83-1.27-4.61-3.65-.31-1-.85-1.53-1.38-1.49s-1.29.88-1.47,2.32l-2,16.23c-.44,3.46-2.62,5-4.59,5.08s-4.13-1.45-4.67-4.82l-3.48-21.89c-.24-1.48-.94-2.16-1.5-2.17h0c-.54,0-1.24.66-1.49,2.12L414,473.58c-.56,3.25-2.7,4.72-4.57,4.73Z"/><path class="cls-3" d="M76.62,465.61a1.52,1.52,0,0,1-.42-.06,1.56,1.56,0,0,1-1.1-1.93l12.06-44.23a1.58,1.58,0,0,1,3,.83L78.13,464.45A1.57,1.57,0,0,1,76.62,465.61Z"/><path class="cls-3" d="M118.64,471.33h-.1a1.56,1.56,0,0,1-1.47-1.67,376,376,0,0,0,.09-45,1.58,1.58,0,0,1,3.15-.19,378.34,378.34,0,0,1-.1,45.43A1.58,1.58,0,0,1,118.64,471.33Z"/><path class="cls-3" d="M53.51,361a.82.82,0,0,1-.22,0A394,394,0,0,1,1.14,349.75a1.57,1.57,0,1,1,.87-3,394.36,394.36,0,0,0,51.73,11.12,1.57,1.57,0,0,1-.23,3.13Z"/><path class="cls-3" d="M62.1,327.67a1.62,1.62,0,0,1-.74-.18L17.65,303.88a1.58,1.58,0,0,1,1.5-2.77l43.7,23.6a1.57,1.57,0,0,1-.75,3Z"/><path class="cls-2" d="M314.18,910.39a16.48,16.48,0,1,1,16.47-16.48A16.51,16.51,0,0,1,314.18,910.39Zm0-29.81a13.33,13.33,0,1,0,13.32,13.33A13.35,13.35,0,0,0,314.18,880.58Z"/><path class="cls-2" d="M300.72,901.33h-.18l-25-2.87a1.58,1.58,0,0,1,.36-3.13l25,2.87a1.57,1.57,0,0,1-.17,3.14Z"/><path class="cls-2" d="M348.51,907.57l-.2,0-22.53-2.86a1.58,1.58,0,0,1,.4-3.13l22.53,2.87a1.58,1.58,0,0,1-.2,3.14Z"/><path class="cls-2" d="M349,853.75H274.88a1.58,1.58,0,0,1,0-3.15H349a1.58,1.58,0,0,1,0,3.15Z"/><path class="cls-2" d="M348.94,737.67H274.53a1.58,1.58,0,0,1,0-3.15h74.41a1.58,1.58,0,1,1,0,3.15Z"/><path class="cls-2" d="M349.18,701.84H274.44a1.58,1.58,0,0,1,0-3.15h74.74a1.58,1.58,0,0,1,0,3.15Z"/><path class="cls-2" d="M419.42,910.39a16.48,16.48,0,1,1,16.48-16.48A16.51,16.51,0,0,1,419.42,910.39Zm0-29.81a13.33,13.33,0,1,0,13.33,13.33A13.35,13.35,0,0,0,419.42,880.58Z"/><path class="cls-2" d="M432.88,901.33a1.57,1.57,0,0,1-.17-3.14l25-2.87a1.58,1.58,0,0,1,.36,3.13l-25,2.87Z"/><path class="cls-2" d="M385.09,907.57a1.58,1.58,0,0,1-.2-3.14l22.53-2.87a1.58,1.58,0,0,1,.4,3.13l-22.53,2.86Z"/><path class="cls-2" d="M458.72,853.75H384.57a1.58,1.58,0,0,1,0-3.15h74.15a1.58,1.58,0,0,1,0,3.15Z"/><path class="cls-2" d="M459.07,737.67H384.66a1.58,1.58,0,1,1,0-3.15h74.41a1.58,1.58,0,0,1,0,3.15Z"/><path class="cls-2" d="M459.16,701.84H384.42a1.58,1.58,0,0,1,0-3.15h74.74a1.58,1.58,0,0,1,0,3.15Z"/><path class="cls-3" d="M619.25,477.55a1.23,1.23,0,0,1-.27,0,1.56,1.56,0,0,1-1.28-1.82l7.73-45.18a1.57,1.57,0,1,1,3.1.53l-7.73,45.18A1.57,1.57,0,0,1,619.25,477.55Z"/><path class="cls-3" d="M578.74,465a1.49,1.49,0,0,1-.58-.11,1.57,1.57,0,0,1-.89-2,378.11,378.11,0,0,1,19.09-41.22,1.57,1.57,0,1,1,2.77,1.49A375.62,375.62,0,0,0,580.2,464,1.56,1.56,0,0,1,578.74,465Z"/><path class="cls-3" d="M736.15,404.25a1,1,0,0,1-.24,0,395,395,0,0,1-52-11.84,1.58,1.58,0,0,1,.91-3,391.85,391.85,0,0,0,51.59,11.75,1.57,1.57,0,0,1-.25,3.13Z"/><path class="cls-3" d="M690.62,358.63a1.57,1.57,0,0,1-.09-3.14l49.58-3a1.58,1.58,0,1,1,.19,3.15l-49.58,2.95Z"/></g></g></svg>