<svg xmlns="http://www.w3.org/2000/svg" viewBox="0 0 360.73 424.88"><defs><style>.cls-1{fill:#fff;}.cls-2{fill:#523b7f;}.cls-3{fill:#bb5aae;}.cls-4{fill:#30224a;}.cls-5{fill:#16678f;}.cls-6{fill:#1ebcc7;}.cls-7{fill:#ffd84c;}</style></defs><g id="Layer_2" data-name="Layer 2"><g id="Layer_1-2" data-name="Layer 1"><circle class="cls-1" cx="210.08" cy="151.03" r="11.47"/><path class="cls-2" d="M177.42,414.7h11.23c-.74,3.85-1.94,10-6.22,9.44C179.09,423.7,178.08,418.26,177.42,414.7Z"/><path class="cls-3" d="M170.94,370.12q-.19-4.31-.23-8.61-.08-7.83.42-15.64.3-5.08.86-10.16h22.1q.56,5.07.86,10.15.5,7.81.42,15.65v.37c0,2.75-.1,5.49-.23,8.24a225.62,225.62,0,0,1-2.7,25.93q-1.38,8.46-3.41,16.81c-.12.5-.24,1.13-.38,1.84H177.42c-.14-.73-.26-1.38-.39-1.9q-1.82-7.5-3.11-15.11A225.78,225.78,0,0,1,170.94,370.12Z"/><circle class="cls-1" cx="150.66" cy="151.03" r="11.47"/><circle class="cls-4" cx="150.66" cy="151.03" r="8.2" transform="translate(-62.67 150.77) rotate(-45)"/><circle class="cls-4" cx="210.08" cy="151.03" r="8.2"/><path class="cls-3" d="M150.66,136.71A14.32,14.32,0,1,1,136.34,151,14.32,14.32,0,0,1,150.66,136.71ZM162.12,151a11.47,11.47,0,1,0-11.46,11.46A11.47,11.47,0,0,0,162.12,151Z"/><path class="cls-2" d="M353.3,354.19a38.59,38.59,0,0,1-5.65,25.14,4.75,4.75,0,0,1-2.25,2.81,2.87,2.87,0,0,1-3.71-.64c-.77-1.2-.13-2.76.44-4.07A39.71,39.71,0,0,0,345,355.77l.15-.24a68,68,0,0,0,8-.92Z"/><path class="cls-2" d="M334.59,348.17l-.3.07a40.48,40.48,0,0,0-5.22,12.46,10.1,10.1,0,0,0,.32,3.49,8.53,8.53,0,0,1,.19,3.48,3.09,3.09,0,0,1-2.23,2.45c-1.54.29-2.89-1-3.74-2.32a12.79,12.79,0,0,1-2.09-5A42.07,42.07,0,0,1,323,339.29l.05.26C328.5,340.11,333.09,343.55,334.59,348.17Z"/><path class="cls-5" d="M322.63,229.93a7.34,7.34,0,0,1,.24.89,35.63,35.63,0,0,1-.67,16.36q-3-5.25-6.23-10.34a21.27,21.27,0,0,1,2.49-7.09c.49-.86,1.21-1.78,2.19-1.77S322.28,228.91,322.63,229.93Z"/><path class="cls-2" d="M316,236.84q3.25,5.08,6.23,10.34a35.48,35.48,0,0,1-5.58,11.56c-1-1.84-2.05-3.66-3.11-5.48A245.48,245.48,0,0,0,268.21,197a66.59,66.59,0,0,0,7.91-7.57A235.7,235.7,0,0,1,316,236.84Z"/><path class="cls-3" d="M276.12,189.46A67.32,67.32,0,0,1,261,202.15c1.46-10.09,2.66-20.23,3.66-30.39A58.67,58.67,0,0,1,291,159.67,63.29,63.29,0,0,1,276.12,189.46Z"/><path class="cls-5" d="M100.79,2q-.21,8.24-.52,16.48H76.43q.31-5.53,1.11-10.95C82.77.58,92.82-2.22,100.79,2Z"/><path class="cls-6" d="M236.87,61a23,23,0,0,0-7.28,8.65A11.1,11.1,0,0,1,219.32,76l-76.55-1.58a11.09,11.09,0,0,1-10-6.81,23.06,23.06,0,0,0-7.62-9.46,78.73,78.73,0,0,1,11.59-7.69c.85-.46,23.93-.26,38.47-.08v.16s47.52,1,48.76,1.69A80.84,80.84,0,0,1,236.87,61Z"/><path class="cls-6" d="M76.43,18.45h23.84q-1.12,30.42-3.67,60.8c-1.7,2.54-3.29,5.36-4.88,8.18A131.41,131.41,0,0,1,76.43,18.45Z"/><path class="cls-5" d="M284.3,20.22H260.46q-.3-8.23-.52-16.48c8-4.18,18-1.39,23.25,5.53Q284,14.7,284.3,20.22Z"/><path class="cls-6" d="M284.3,20.22a131.45,131.45,0,0,1-15.29,69c-1.59-2.82-3.18-5.64-4.88-8.18q-2.58-30.36-3.67-60.81Z"/><path class="cls-2" d="M261.35,91.47l2.55-10.41.23,0c1.7,2.54,3.29,5.36,4.88,8.18l0,0q-1.28,6.35-2.56,12.71c-1.48-3.46-3.17-7-5.07-10.48Z"/><path class="cls-2" d="M99.38,89.69h0c-1.9,3.5-3.59,7-5.07,10.47L91.77,87.46l0,0c1.59-2.82,3.18-5.64,4.88-8.18l.23,0Z"/><path class="cls-6" d="M94.32,100.17c1.48-3.46,3.17-7,5.07-10.47,6.23-11.45,14.73-22.75,25.77-31.53a23.06,23.06,0,0,1,7.62,9.46,11.09,11.09,0,0,0,10,6.81L219.32,76a11.1,11.1,0,0,0,10.27-6.38A23,23,0,0,1,236.87,61c10.41,8.62,18.49,19.48,24.47,30.48,1.9,3.5,3.59,7,5.07,10.48.78,1.8,1.49,3.59,2.16,5.35,0,.79-.05,1.58-.08,2.37-3.08,0-8.16,0-13.34,0a36.15,36.15,0,0,1-28.27-13.62l-.13-.17a9.22,9.22,0,0,0-6.92-3.41l-50.64-1.55-28.29-.23A9.2,9.2,0,0,0,134,94.13l-.14.16a36.12,36.12,0,0,1-28.27,13.62l-13.34,0c0-.79,0-1.58-.07-2.37C92.83,103.76,93.55,102,94.32,100.17Z"/><path class="cls-2" d="M18.61,375.66c.57,1.3,1.2,2.87.43,4.07a2.85,2.85,0,0,1-3.7.63,4.66,4.66,0,0,1-2.25-2.8,38.59,38.59,0,0,1-5.66-25.15c.06.14.11.29.17.43a67.59,67.59,0,0,0,8,.92l.16.24A39.65,39.65,0,0,0,18.61,375.66Z"/><path class="cls-2" d="M37.74,337.52A42.12,42.12,0,0,1,39.22,361a13,13,0,0,1-2.09,5c-.86,1.31-2.21,2.61-3.75,2.33a3.08,3.08,0,0,1-2.22-2.46,8.55,8.55,0,0,1,.19-3.48,10.26,10.26,0,0,0,.31-3.48,40.6,40.6,0,0,0-5.21-12.46l-.73-.06h.43c1.49-4.63,6.09-8.07,11.55-8.63Z"/><path class="cls-5" d="M37.74,337.52l0,.25c-5.46.56-10.06,4-11.55,8.63h-.43a12,12,0,0,0-10.14,7.35,67.59,67.59,0,0,1-8-.92c-.06-.14-.11-.29-.17-.43A110.73,110.73,0,0,1,.14,317.72h12.1c3.68,1.36,4.93,6.73,8.75,7.84,2.7.77,5.54-1,7.2-3.29s2.52-5,4-7.4a17.39,17.39,0,0,1,10.22-7.54Q40.45,322.48,37.74,337.52Z"/><path class="cls-6" d="M327.07,314.11c1.57,2.55,2.51,5.49,4.27,7.91s4.81,4.34,7.69,3.51c4.09-1.18,5.43-6.92,9.36-8.37h12.3a111.29,111.29,0,0,0-38.06-87.23,7.34,7.34,0,0,1,.24.89,36,36,0,0,1-6.25,27.92c-1-1.84-2.05-3.66-3.11-5.48q1.13,26.79,4.5,53.4A18.51,18.51,0,0,1,327.07,314.11Z"/><path class="cls-5" d="M348.39,317.16c-3.93,1.45-5.27,7.19-9.36,8.37-2.88.83-5.92-1.08-7.69-3.51s-2.7-5.36-4.27-7.91a18.51,18.51,0,0,0-9.06-7.45q2.07,16.38,5,32.63l.05.26c5.46.56,10,4,11.55,8.62a11.93,11.93,0,0,1,10.56,7.36,68,68,0,0,0,8-.92l.16-.42a111.12,111.12,0,0,0,7.39-37Z"/><path class="cls-6" d="M44.11,257q1.53-2.76,3.12-5.48-1.18,28-4.82,55.84a17.39,17.39,0,0,0-10.22,7.54c-1.48,2.39-2.35,5.13-4,7.4s-4.5,4.06-7.2,3.29c-3.82-1.11-5.07-6.48-8.75-7.84H.14a111.33,111.33,0,0,1,38-89.57,6.4,6.4,0,0,0-.25.9A36,36,0,0,0,44.11,257Z"/><path class="cls-5" d="M38.11,228.15c.34-1,1-1.94,2-1.94s1.69.91,2.18,1.76a21.05,21.05,0,0,1,2.49,7.09q-3.24,5.1-6.23,10.35a35.64,35.64,0,0,1-.67-16.36A6.4,6.4,0,0,1,38.11,228.15Z"/><path class="cls-2" d="M47.23,251.49q-1.59,2.72-3.12,5.48a35.58,35.58,0,0,1-5.58-11.56q3-5.25,6.23-10.35a236,236,0,0,1,39.85-47.38,67.36,67.36,0,0,0,7.91,7.57A245.71,245.71,0,0,0,47.23,251.49Z"/><path class="cls-3" d="M92.52,195.25a67.36,67.36,0,0,1-7.91-7.57,63.14,63.14,0,0,1-14.89-29.79,58.75,58.75,0,0,1,26.92,12.54q1.73,15.31,4.15,30.56A66.28,66.28,0,0,1,92.52,195.25Z"/><path class="cls-2" d="M156.71,346v15.48h-8.32c-.16-1-.17-14-.17-15.65h8.49Z"/><polygon class="cls-2" points="159 361.51 156.71 361.51 156.71 346.03 156.71 345.86 166.17 345.86 166.17 346.03 166.17 361.51 159 361.51"/><path class="cls-1" d="M185.87,161.78a1.68,1.68,0,0,1,1.44,2.56c-1.54,2.4-4,3.46-7.35,3.47a8.33,8.33,0,0,1-6.45-3.26,1.67,1.67,0,0,1,1.33-2.68Z"/><path class="cls-3" d="M210.08,136.71A14.32,14.32,0,1,1,195.76,151,14.32,14.32,0,0,1,210.08,136.71ZM221.54,151a11.47,11.47,0,1,0-11.46,11.46A11.47,11.47,0,0,0,221.54,151Z"/><path class="cls-2" d="M242.27,162.34a10.56,10.56,0,0,1-4.86,9.21,11,11,0,0,1-5.92,1.65h-101a11,11,0,0,1-5.93-1.65,10.56,10.56,0,0,1-4.86-9.21l.85-16a15.94,15.94,0,0,1,3.8-9.8l.16-.18a13.9,13.9,0,0,1,10.64-4.94h26.46a11.64,11.64,0,0,1,8.22,3.41l4.54,4.54a8.46,8.46,0,0,0,6,2.48h1.25a8.44,8.44,0,0,0,6-2.48l4.54-4.54a11.64,11.64,0,0,1,8.22-3.41h26.46a13.92,13.92,0,0,1,10.65,4.94l.15.18a15.94,15.94,0,0,1,3.8,9.8ZM224.39,151a14.32,14.32,0,1,0-14.31,14.32A14.32,14.32,0,0,0,224.39,151Zm-37.08,13.31a1.68,1.68,0,0,0-1.44-2.56l-11,.09a1.67,1.67,0,0,0-1.33,2.68,8.33,8.33,0,0,0,6.45,3.26C183.31,167.8,185.77,166.74,187.31,164.34ZM165,151a14.32,14.32,0,1,0-14.31,14.32A14.32,14.32,0,0,0,165,151Z"/><path class="cls-7" d="M245.06,162.24a13.39,13.39,0,0,1-6.14,11.66,13.73,13.73,0,0,1-7.43,2.1h-101a13.74,13.74,0,0,1-7.44-2.1,13.39,13.39,0,0,1-6.14-11.66l.84-16a18.77,18.77,0,0,1,4.47-11.52l.14-.17a16.67,16.67,0,0,1,12.79-5.93h26.46a14.36,14.36,0,0,1,10.2,4.22l4.54,4.54a5.62,5.62,0,0,0,4,1.66h1.25a5.59,5.59,0,0,0,4-1.66l4.54-4.54a14.36,14.36,0,0,1,10.2-4.22h26.46a16.66,16.66,0,0,1,12.79,5.93l.13.16a18.77,18.77,0,0,1,4.48,11.53Zm-7.65,9.31a10.56,10.56,0,0,0,4.86-9.21l-.85-16a15.94,15.94,0,0,0-3.8-9.8l-.15-.18a13.92,13.92,0,0,0-10.65-4.94H200.36a11.64,11.64,0,0,0-8.22,3.41l-4.54,4.54a8.44,8.44,0,0,1-6,2.48h-1.25a8.46,8.46,0,0,1-6-2.48l-4.54-4.54a11.64,11.64,0,0,0-8.22-3.41H135.17a13.9,13.9,0,0,0-10.64,4.94l-.16.18a15.94,15.94,0,0,0-3.8,9.8l-.85,16a10.56,10.56,0,0,0,4.86,9.21,11,11,0,0,0,5.93,1.65h101A11,11,0,0,0,237.41,171.55Z"/><path class="cls-6" d="M152.93,248v7.6c0,2.21,0,6.42-3.57,6.42s-3.61-4.33-3.61-6.63v-7.86c0-2.05,0-6.12,3.57-6.12S152.93,245.81,152.93,248Z"/><path class="cls-2" d="M258.22,413.73h12.49q-3.57,5.08-7.65,9.89a3.54,3.54,0,0,1-6.17-3Q257.58,417.2,258.22,413.73Z"/><path class="cls-3" d="M268,337.68l30.7,2.47c-4.06,26.34-12.6,51.73-28,73.58H258.22A687.21,687.21,0,0,0,268,337.68Z"/><path class="cls-2" d="M104.88,420.65a3.53,3.53,0,0,1-6.16,3q-4.08-4.81-7.65-9.89h12.49Q104.2,417.2,104.88,420.65Z"/><path class="cls-3" d="M103.56,413.73H91.07c-15.4-21.85-23.95-47.24-28-73.58l30.69-2.47A687.23,687.23,0,0,0,103.56,413.73Z"/><path class="cls-2" d="M199,361.51h5.39c-2.26,4.73-4.23,8.61-4.23,8.61h-5.05c.13-2.75.2-5.49.23-8.24v-.37H199Z"/><path class="cls-6" d="M268.49,330.65c0-.4.05-.8.07-1.19a15.86,15.86,0,0,1,2.92-8.27,15.62,15.62,0,0,1,15.1-6.4l.32,0a15.68,15.68,0,0,1,12.88,17.46c-.32,2.63-.67,5.24-1.07,7.85L268,337.68C268.18,335.34,268.34,333,268.49,330.65Z"/><path class="cls-2" d="M199,346v15.48h-3.66q.07-7.83-.42-15.65H199Z"/><path class="cls-5" d="M271.45,321.17l0,0a15.86,15.86,0,0,0-2.92,8.27c0,.39-.05.79-.07,1.19a190.62,190.62,0,0,1-30.7,22,90.28,90.28,0,0,1-20.74-9.43c.6-1.09,1.18-2.17,1.76-3.27a66.82,66.82,0,0,0,16.56,7.67C249.54,341.2,261.2,331.86,271.45,321.17Z"/><polygon class="cls-2" points="204.42 361.51 199.03 361.51 199.03 346.03 199.03 345.86 208.49 345.86 208.49 346.03 208.49 361.51 204.42 361.51"/><path class="cls-2" d="M208.49,345.86h7.17c0,1.65,0,14.65-.17,15.65h-7V345.86Z"/><path class="cls-2" d="M215.66,345.72v.14H195q-.3-5.08-.86-10.15c-.21-2-.46-4-.73-6,0-.2-.05-.41-.08-.61h31q-2.64,5.49-5.51,10.87c-.58,1.1-1.16,2.18-1.76,3.27-.45.84-.91,1.67-1.38,2.5Z"/><path class="cls-6" d="M93.29,330.65c.14,2.34.3,4.69.47,7l-30.69,2.47c-.4-2.61-.76-5.22-1.07-7.85a15.68,15.68,0,0,1,12.88-17.46l.32,0a15.59,15.59,0,0,1,15.09,6.4,15.78,15.78,0,0,1,2.93,8.27C93.24,329.85,93.26,330.25,93.29,330.65Z"/><path class="cls-5" d="M144.46,339c.58,1.1,1.17,2.2,1.76,3.3A90.3,90.3,0,0,1,124,352.65a190.62,190.62,0,0,1-30.7-22c0-.4-.05-.8-.07-1.19a15.78,15.78,0,0,0-2.93-8.27l0,0c10.25,10.69,21.92,20,36.09,26.45A67.32,67.32,0,0,0,144.46,339Z"/><path class="cls-2" d="M166.17,361.51h4.54q0,4.31.23,8.61h-7.7s-2-3.88-4.24-8.61Z"/><path class="cls-2" d="M171,345.86h.11q-.49,7.8-.42,15.64h-4.54V345.86Z"/><path class="cls-2" d="M144.46,339q-2.58-4.91-5-9.89H172.6l.2,0-.09.59c-.27,2-.51,4-.72,6q-.56,5.07-.86,10.16H148.2l-2-3.59C145.63,341.17,145,340.07,144.46,339Z"/><path class="cls-5" d="M229.69,213.87a5.68,5.68,0,0,1,0,11.35H215.35a5.68,5.68,0,0,1,0-11.35Z"/><path class="cls-6" d="M194.09,335.71H172c.21-2,.45-4,.72-6l.09-.59c.9-6.44,2.53-13.35,7.67-17.28a4,4,0,0,1,5.14,0c5.14,3.93,6.76,10.82,7.67,17.26,0,.2.06.41.08.61C193.63,331.7,193.88,333.71,194.09,335.71Z"/><path class="cls-2" d="M196.34,299.56v29.52h-3.06c-.91-6.44-2.53-13.33-7.67-17.26a4,4,0,0,0-5.14,0c-5.14,3.93-6.77,10.84-7.67,17.28l-.2,0h-3.23V299.56a19,19,0,0,1,8.69-16.09,10,10,0,0,1,6.34-1.27c2,.19,3.44,1.27,5,2.52a18.91,18.91,0,0,1,6.26,9.68A19.45,19.45,0,0,1,196.34,299.56Z"/><path class="cls-1" d="M158.63,249v5.59c0,4.16,0,13-9.27,13s-9.32-8.86-9.32-13v-5.61c0-4.16-.06-13,9.28-13S158.63,244.81,158.63,249Zm-5.7,6.67V248c0-2.21,0-6.59-3.61-6.59s-3.53,4.07-3.57,6.12v7.86c0,2.3,0,6.63,3.61,6.63S152.91,257.83,152.93,255.62Z"/><path class="cls-1" d="M168.39,243.3l3.7,7.29h-3l-2.22-4.38-2.21,4.38h-3l3.71-7.3-3.14-6.22s-.24-.46.22-.46H165l1.92,3.79,1.69-3.33s.16-.46.53-.46h2.64Z"/><path class="cls-6" d="M218.19,275.36h26.93a366.44,366.44,0,0,1-20.8,53.72h-28V299.56a19.45,19.45,0,0,0-.69-5.16,18.91,18.91,0,0,0-6.26-9.68c-1.55-1.25-3-2.33-5-2.52a10,10,0,0,0-6.34,1.27,19,19,0,0,0-8.69,16.09v29.52H139.45c-14.32-29.36-24.65-60.81-31.95-93.15a17.16,17.16,0,0,0,14.26-9.33l5.85-11.49a19,19,0,0,1,17-10.35c7,0,15.68,0,22.62.05a16.51,16.51,0,0,1,15.74,11.56c4.53,14.45,9.57,30.79,13.06,42.45A23.19,23.19,0,0,0,218.19,275.36Zm-46.1-24.77-3.7-7.29,3.38-6.69h-2.64c-.37,0-.53.46-.53.46l-1.69,3.33L165,236.61h-2.47c-.46,0-.22.46-.22.46l3.14,6.22-3.71,7.3h3l2.21-4.38,2.22,4.38Zm-13.46,3.95V249c0-4.14.06-13-9.31-13s-9.28,8.84-9.28,13v5.61c0,4.13,0,13,9.32,13S158.63,258.7,158.63,254.54Z"/><path class="cls-6" d="M100.79,201q-2.45-15.23-4.15-30.56c-2.34-20.9-3.72-41.85-4.4-62.54l13.34,0a36.12,36.12,0,0,0,28.27-13.62l.14-.16a9.2,9.2,0,0,1,6.91-3.42l28.29.23,50.64,1.55a9.22,9.22,0,0,1,6.92,3.41l.13.17a36.15,36.15,0,0,0,28.27,13.62c5.18,0,10.26,0,13.34,0-.66,20.64-1.82,41.41-3.85,62.09-1,10.16-2.2,20.3-3.66,30.39a496.55,496.55,0,0,1-15.86,73.21H218.19A23.19,23.19,0,0,1,196,258.82c-3.49-11.66-8.53-28-13.06-42.45a16.51,16.51,0,0,0-15.74-11.56c-6.94,0-15.64,0-22.62-.05a19,19,0,0,0-17,10.35l-5.85,11.49a17.16,17.16,0,0,1-14.26,9.33Q103.57,218.61,100.79,201ZM238.92,173.9a13.39,13.39,0,0,0,6.14-11.66l-.84-16a18.77,18.77,0,0,0-4.48-11.53l-.13-.16a16.66,16.66,0,0,0-12.79-5.93H200.36a14.36,14.36,0,0,0-10.2,4.22l-4.54,4.54a5.59,5.59,0,0,1-4,1.66h-1.25a5.62,5.62,0,0,1-4-1.66l-4.54-4.54a14.36,14.36,0,0,0-10.2-4.22H135.17a16.67,16.67,0,0,0-12.79,5.93l-.14.17a18.77,18.77,0,0,0-4.47,11.52l-.84,16a13.39,13.39,0,0,0,6.14,11.66,13.74,13.74,0,0,0,7.44,2.1h101A13.73,13.73,0,0,0,238.92,173.9Zm-3.56,45.65a5.69,5.69,0,0,0-5.67-5.68H215.35a5.68,5.68,0,0,0,0,11.35h14.34a5.67,5.67,0,0,0,5.67-5.67Z"/><path class="cls-5" d="M245.12,276.1H218.19A23.77,23.77,0,0,1,195.27,259c-3.28-11-8.29-27.24-13.06-42.44a15.69,15.69,0,0,0-15-11l-22.62,0h-.06a18.12,18.12,0,0,0-16.23,9.94l-5.85,11.49a17.8,17.8,0,0,1-14.35,9.69.74.74,0,1,1-.14-1.47,16.32,16.32,0,0,0,13.17-8.9L127,214.78A19.61,19.61,0,0,1,144.5,204h.06c7,0,15.68,0,22.62,0a17.18,17.18,0,0,1,16.44,12.09c4.78,15.2,9.78,31.47,13.07,42.45a22.3,22.3,0,0,0,21.5,16h26.93a.74.74,0,0,1,0,1.48Z"/><path class="cls-6" d="M204.39,362.25h-8.76a.74.74,0,0,1,0-1.48h8.76a.74.74,0,0,1,0,1.48Z"/><path class="cls-6" d="M170.53,362.25H158.94a.74.74,0,0,1,0-1.48h11.59a.74.74,0,0,1,0,1.48Z"/><path class="cls-6" d="M171,346.61H148.17a.75.75,0,0,1,0-1.49H171a.75.75,0,0,1,0,1.49Z"/><path class="cls-6" d="M215.71,346.61H194.79a.75.75,0,1,1,0-1.49h20.92a.75.75,0,0,1,0,1.49Z"/><path class="cls-6" d="M156.71,362.37a.74.74,0,0,1-.74-.74V346a.74.74,0,1,1,1.48,0v15.6A.74.74,0,0,1,156.71,362.37Z"/><path class="cls-6" d="M166.17,362.37a.74.74,0,0,1-.74-.74V346a.74.74,0,0,1,1.48,0v15.6A.74.74,0,0,1,166.17,362.37Z"/><path class="cls-6" d="M199,362.37a.74.74,0,0,1-.74-.74V346a.74.74,0,1,1,1.48,0v15.6A.74.74,0,0,1,199,362.37Z"/><path class="cls-6" d="M208.49,362.37a.74.74,0,0,1-.74-.74V346a.74.74,0,0,1,1.48,0v15.6A.74.74,0,0,1,208.49,362.37Z"/><path class="cls-1" d="M219.62,76.77h-.32l-76.54-1.58a11.88,11.88,0,0,1-10.66-7.25A22.24,22.24,0,0,0,125,59a.75.75,0,0,1-.16-1,.76.76,0,0,1,1-.15,23.64,23.64,0,0,1,7.59,9.57,10.4,10.4,0,0,0,9.32,6.36l76.56,1.58a10.39,10.39,0,0,0,9.58-6,23.84,23.84,0,0,1,7-8.55.75.75,0,0,1,1,.15.73.73,0,0,1-.14,1,22.38,22.38,0,0,0-6.58,8A11.88,11.88,0,0,1,219.62,76.77Z"/><path class="cls-5" d="M347.85,317.71a.77.77,0,0,1-.39-.11.74.74,0,0,1-.24-1c.84-1.38,0-3.32-1.15-4.54a20.84,20.84,0,0,0-1.75-1.59,14.49,14.49,0,0,1-2.63-2.62A14.72,14.72,0,0,1,339.6,302l-3.69-18.38c-1-5-2.17-9.68-5.56-12.51a20.35,20.35,0,0,0-3.55-2.23,26.26,26.26,0,0,1-3.34-2c-3.31-2.51-5.66-8-5.34-12.6a.74.74,0,0,1,1.48.11c-.28,4,1.85,9.11,4.76,11.31a24.23,24.23,0,0,0,3.14,1.9,21.4,21.4,0,0,1,3.8,2.39c3.76,3.15,5,8.11,6.07,13.36l3.68,18.38a13.74,13.74,0,0,0,1.84,5.3,13.6,13.6,0,0,0,2.38,2.35,21.35,21.35,0,0,1,1.88,1.71c1.57,1.67,2.59,4.28,1.33,6.33A.76.76,0,0,1,347.85,317.71Z"/><path class="cls-5" d="M12.65,319.21a.73.73,0,0,1-.64-.37c-1.24-2.14-.23-4.88,1.31-6.64a24.58,24.58,0,0,1,1.87-1.82,13.58,13.58,0,0,0,2.37-2.5,15.39,15.39,0,0,0,1.85-5.67l3.66-19.56c1-5.56,2.29-10.84,6-14.18a21.86,21.86,0,0,1,3.77-2.54,22.13,22.13,0,0,0,3.13-2c2.91-2.34,5-7.77,4.75-12.09a.74.74,0,0,1,.69-.79.75.75,0,0,1,.79.69c.32,4.83-2,10.69-5.29,13.35a25.46,25.46,0,0,1-3.33,2.15,20.93,20.93,0,0,0-3.53,2.37c-3.38,3-4.55,8-5.54,13.35l-3.67,19.56a16.29,16.29,0,0,1-2.07,6.21,15.11,15.11,0,0,1-2.61,2.79,20,20,0,0,0-1.74,1.69c-1.16,1.32-2,3.42-1.15,4.92a.74.74,0,0,1-.27,1A.71.71,0,0,1,12.65,319.21Z"/><path class="cls-2" d="M121.85,124.89c-2.27,0-4.17-.33-5.75-2.21a19.15,19.15,0,0,1-2.56-4.55c-.27-.61-.55-1.23-.85-1.83a22.13,22.13,0,0,0-19.16-11.81.74.74,0,0,1,0-1.48h0A23.65,23.65,0,0,1,114,115.64c.31.62.6,1.27.87,1.89a17,17,0,0,0,2.35,4.19c1.28,1.54,2.79,1.76,5.67,1.67h76.5a.74.74,0,1,1,0,1.48H122.93Z"/><path class="cls-2" d="M238.75,124.89l-1.09,0H161.2a.74.74,0,0,1,0-1.48h76.48c2.91.09,4.41-.13,5.7-1.67a17,17,0,0,0,2.34-4.19c.28-.62.56-1.27.88-1.89A23.64,23.64,0,0,1,267.06,103h0a.73.73,0,0,1,.74.73.74.74,0,0,1-.73.75,22.15,22.15,0,0,0-19.16,11.81c-.3.6-.58,1.22-.85,1.83a18.77,18.77,0,0,1-2.55,4.55C242.94,124.55,241,124.89,238.75,124.89Z"/></g></g></svg>