<svg xmlns="http://www.w3.org/2000/svg" viewBox="0 0 828.13 963.23"><defs><style>.cls-1{fill:#bd264f;}.cls-2{fill:none;}.cls-3{fill:#fd8ea9;}.cls-4{fill:#e9577e;}.cls-5{fill:#2c1a5e;}.cls-6{fill:#a1c1fc;}.cls-7{fill:#f4dfcf;}.cls-8{fill:#3a44fc;}.cls-9{fill:#fff;}.cls-10{fill:#abb0fc;}</style></defs><g id="Layer_2" data-name="Layer 2"><g id="Layer_2-2" data-name="Layer 2"><path class="cls-1" d="M388.41,239.27a4.68,4.68,0,1,0,4.67,4.67A4.67,4.67,0,0,0,388.41,239.27Z"/><path class="cls-1" d="M360,239.27a4.68,4.68,0,1,0,4.67,4.67A4.66,4.66,0,0,0,360,239.27Z"/><path class="cls-1" d="M416.86,239.27a4.68,4.68,0,1,0,4.67,4.67A4.66,4.66,0,0,0,416.86,239.27Z"/><path class="cls-1" d="M331.52,239.27a4.68,4.68,0,1,0,4.68,4.67A4.66,4.66,0,0,0,331.52,239.27Z"/><path class="cls-1" d="M445.29,239.27a4.68,4.68,0,1,0,4.68,4.67A4.66,4.66,0,0,0,445.29,239.27Z"/><path class="cls-1" d="M303.08,239.27a4.68,4.68,0,1,0,4.68,4.67A4.67,4.67,0,0,0,303.08,239.27Z"/><path class="cls-1" d="M217.76,239.27a4.68,4.68,0,1,0,4.68,4.67A4.67,4.67,0,0,0,217.76,239.27Z"/><path class="cls-1" d="M274.65,239.27a4.68,4.68,0,1,0,4.67,4.67A4.66,4.66,0,0,0,274.65,239.27Z"/><path class="cls-1" d="M246.2,239.27a4.68,4.68,0,1,0,4.67,4.67A4.67,4.67,0,0,0,246.2,239.27Z"/><path class="cls-2" d="M364.46,747.88a7.45,7.45,0,0,0-2.22,5.33,7.53,7.53,0,0,0,7.55,7.53h65.67a7.53,7.53,0,0,0,0-15.06H369.79A7.5,7.5,0,0,0,364.46,747.88Z"/><circle class="cls-2" cx="342.17" cy="752.64" r="6.68"/><circle class="cls-2" cx="318.12" cy="752.64" r="6.68"/><path class="cls-2" d="M292.93,746a6.68,6.68,0,1,0,6.68,6.68A6.68,6.68,0,0,0,292.93,746Z"/><path class="cls-1" d="M502.18,239.27a4.68,4.68,0,1,0,4.67,4.67A4.67,4.67,0,0,0,502.18,239.27Z"/><path class="cls-1" d="M473.74,239.27a4.68,4.68,0,1,0,4.68,4.67A4.66,4.66,0,0,0,473.74,239.27Z"/><path class="cls-3" d="M538.36,511.79c.91-66.46,1.8-133.07,2.68-200.77a198.17,198.17,0,0,0-15.34-81.41H201.76A198.25,198.25,0,0,0,186.4,311c.9,67.42,1.79,133.78,2.69,200q.28,21.56.58,43.11H537.79ZM217.76,248.62a4.68,4.68,0,1,1,4.68-4.68A4.68,4.68,0,0,1,217.76,248.62Zm28.44,0a4.68,4.68,0,1,1,4.67-4.68A4.69,4.69,0,0,1,246.2,248.62Zm28.45,0a4.68,4.68,0,1,1,4.67-4.68A4.68,4.68,0,0,1,274.65,248.62Zm28.43,0a4.68,4.68,0,1,1,4.68-4.68A4.68,4.68,0,0,1,303.08,248.62Zm28.44,0a4.68,4.68,0,1,1,4.68-4.68A4.68,4.68,0,0,1,331.52,248.62Zm28.45,0a4.68,4.68,0,1,1,4.67-4.68A4.68,4.68,0,0,1,360,248.62Zm28.44,0a4.68,4.68,0,1,1,4.67-4.68A4.69,4.69,0,0,1,388.41,248.62Zm28.45,0a4.68,4.68,0,1,1,4.67-4.68A4.67,4.67,0,0,1,416.86,248.62Zm28.43,0a4.68,4.68,0,1,1,4.68-4.68A4.68,4.68,0,0,1,445.29,248.62Zm28.45,0a4.68,4.68,0,1,1,4.68-4.68A4.67,4.67,0,0,1,473.74,248.62Zm28.44,0a4.68,4.68,0,1,1,4.67-4.68A4.69,4.69,0,0,1,502.18,248.62Z"/><path class="cls-4" d="M189.67,554.1q.39,29.71.79,59.48.34,24.95.68,50h94.39a21.28,21.28,0,0,1,21.27,21.27v25.59a21.26,21.26,0,0,1-21.27,21.25H192q.3,22.17.6,44.5H534.81q.32-23,.61-45.79H440.35a21.24,21.24,0,0,1-21.25-21.25v-25.6a21.25,21.25,0,0,1,21.25-21.25h96q.34-24.21.65-48.33.4-30,.81-59.84ZM292.93,759.31a6.68,6.68,0,1,1,6.68-6.67A6.67,6.67,0,0,1,292.93,759.31Zm25.19,0a6.68,6.68,0,1,1,6.68-6.67A6.67,6.67,0,0,1,318.12,759.31Zm24.05,0a6.68,6.68,0,1,1,6.67-6.67A6.68,6.68,0,0,1,342.17,759.31Zm93.29-13.63a7.53,7.53,0,1,1,0,15.06H369.79a7.53,7.53,0,0,1-7.55-7.53,7.55,7.55,0,0,1,7.55-7.53Z"/><path class="cls-5" d="M325.63,961.65H292a28,28,0,0,1-4.36-18.82,28.32,28.32,0,0,1,1.92-7.12A18.13,18.13,0,0,0,288,919a19.72,19.72,0,0,1-2.76-5.57,26.07,26.07,0,0,1,1.15-17.23,36.32,36.32,0,0,1,2.17-4.43,18,18,0,0,0-.51-17.91,24.52,24.52,0,0,1,3-30.6v-.62h33.61v.62a24.51,24.51,0,0,0-3,30.6,17.93,17.93,0,0,1,.51,17.91,36.25,36.25,0,0,0-2.16,4.43,26,26,0,0,0-1.15,17.23,19.69,19.69,0,0,0,2.75,5.57,18.13,18.13,0,0,1,1.63,16.72,27.65,27.65,0,0,0,2.43,25.94Z"/><path class="cls-5" d="M262.33,961.65h-33.6a27.89,27.89,0,0,1-4.35-18.82,27.52,27.52,0,0,1,1.93-7.12A18.16,18.16,0,0,0,224.68,919a19.72,19.72,0,0,1-2.76-5.57,26.14,26.14,0,0,1,1.15-17.23,34.92,34.92,0,0,1,2.17-4.43,18,18,0,0,0-.5-17.91,24.47,24.47,0,0,1,3-30.6v-.62h33.61v.62a24.5,24.5,0,0,0-3,30.6,17.93,17.93,0,0,1,.49,17.91,37.77,37.77,0,0,0-2.16,4.43,26.2,26.2,0,0,0-1.15,17.23,20,20,0,0,0,2.77,5.57,18.16,18.16,0,0,1,1.61,16.72,28.32,28.32,0,0,0-1.92,7.12A28,28,0,0,0,262.33,961.65Z"/><circle class="cls-1" cx="445.29" cy="243.94" r="4.67"/><path class="cls-6" d="M435.46,745.68a7.53,7.53,0,1,1,0,15.06H369.79a7.53,7.53,0,0,1-7.55-7.53,7.55,7.55,0,0,1,7.55-7.53Z"/><path class="cls-1" d="M303.08,239.27a4.68,4.68,0,1,1-4.67,4.67A4.67,4.67,0,0,1,303.08,239.27Z"/><path class="cls-7" d="M170.37,913.44a9.15,9.15,0,0,0,2.46-6.23c0-3.7,0-8.41,0-13.54h.19l16.75-.1.09,0v20h-3.6l-15.64.14Z"/><path class="cls-4" d="M306.8,684.83v25.59a21.26,21.26,0,0,1-21.27,21.25H192q-.43-34.2-.9-68.11h94.39A21.28,21.28,0,0,1,306.8,684.83Z"/><path class="cls-6" d="M363.71,49.79a21.06,21.06,0,0,1-2.12.1,21.78,21.78,0,0,1-2.57-.14,24.94,24.94,0,1,1,4.69,0Z"/><path class="cls-5" d="M768.18,290.38v.15a30.23,30.23,0,0,1-13.9-6.79,22.57,22.57,0,0,1-7.51-16,21.17,21.17,0,0,1,6.79-16.31l5.3,3.43A17.68,17.68,0,0,0,769.57,283l-.05.28C768.76,285.81,768,288.33,768.18,290.38Z"/><path class="cls-5" d="M826.54,268.84c-2.81,7.41-8.67,13.29-15.15,17.87l-.19-.07a69.32,69.32,0,0,1-3.43-8.48l-.06-.13c3.79-2.77,7.33-6.13,9.2-10.43s1.77-9.7-1.51-13.57c2.66-2.41,5.31-4.83,8-7.23C828.59,252.6,829.32,261.53,826.54,268.84Z"/><path class="cls-3" d="M799.36,293.72a11.06,11.06,0,0,0-2.51,9.93l0,.45c-3.27.19-6.58.36-9.84.53a12.66,12.66,0,0,0-5.61-10.47,52,52,0,0,0-13.24-3.78c-.18-2.05.58-4.57,1.34-7.08a46.9,46.9,0,0,0,38.25-5.14,69.32,69.32,0,0,0,3.43,8.48A129.08,129.08,0,0,0,799.36,293.72Z"/><path class="cls-6" d="M797.05,329.36,785,330l-26.41,1.47-.66-25.23s13.81-.76,29.14-1.63c3.26-.17,6.57-.34,9.84-.53L816.81,303l.67,25.23Z"/><path class="cls-5" d="M478.48,961.65h-33.6a27.56,27.56,0,0,1-2.43-25.94A18.13,18.13,0,0,0,440.83,919a19.72,19.72,0,0,1-2.76-5.57,26.07,26.07,0,0,1,1.14-17.23,36.32,36.32,0,0,1,2.17-4.43,18,18,0,0,0-.5-17.91,24.5,24.5,0,0,1,3-30.6v-.62h33.61v.62a24.5,24.5,0,0,0-3,30.6,17.93,17.93,0,0,1,.49,17.91,36.25,36.25,0,0,0-2.16,4.43,26.14,26.14,0,0,0-1.15,17.23,19.45,19.45,0,0,0,2.76,5.57,18.13,18.13,0,0,1,1.62,16.72,27.65,27.65,0,0,0,2.43,25.94Z"/><path class="cls-5" d="M354.56,961.65H325.63a27.65,27.65,0,0,1-2.43-25.94A18.13,18.13,0,0,0,321.57,919a19.69,19.69,0,0,1-2.75-5.57A26,26,0,0,1,320,896.19a36.25,36.25,0,0,1,2.16-4.43,17.93,17.93,0,0,0-.51-17.91,24.51,24.51,0,0,1,3-30.6v-.62h28.93v.62a24.51,24.51,0,0,0-3,30.6,17.93,17.93,0,0,1,.51,17.91,36.25,36.25,0,0,0-2.16,4.43,26,26,0,0,0-1.15,17.23,19.45,19.45,0,0,0,2.76,5.57,18.13,18.13,0,0,1,1.62,16.72,27.65,27.65,0,0,0,2.43,25.94Z"/><path class="cls-5" d="M797.05,329.36a249.7,249.7,0,0,1-29.67,104.91,262.57,262.57,0,0,1-62.39,76c-42.84,36.06-98.71,59-142.22,59.29l-.13-12.21c40.6-.47,94-22.08,134.62-56.27a251,251,0,0,0,59.56-72.51A237.9,237.9,0,0,0,785,330.1V330Z"/><path class="cls-6" d="M292.93,746a6.68,6.68,0,1,1-6.67,6.68A6.68,6.68,0,0,1,292.93,746Z"/><path class="cls-1" d="M246.2,239.27a4.68,4.68,0,1,1-4.68,4.67A4.66,4.66,0,0,1,246.2,239.27Z"/><path class="cls-1" d="M473.74,239.27a4.68,4.68,0,1,1-4.67,4.67A4.67,4.67,0,0,1,473.74,239.27Z"/><path class="cls-5" d="M363.71,49.79q.26,25,.55,50.09h-4.69q-.29-25.06-.55-50.13a21.78,21.78,0,0,0,2.57.14A21.06,21.06,0,0,0,363.71,49.79Z"/><path class="cls-1" d="M367.73,100a16.62,16.62,0,0,1,16.62,16.62v2.22c-2.68-.43-5.36-.79-8.05-1.1a127.93,127.93,0,0,0-36.47,1.36v-2.6a16.62,16.62,0,0,1,16.61-16.63h11.29Z"/><path class="cls-5" d="M418.08,961.65H388.17a28,28,0,0,1-4.36-18.82,28.32,28.32,0,0,1,1.92-7.12A18.13,18.13,0,0,0,384.11,919a19.72,19.72,0,0,1-2.76-5.57,26.07,26.07,0,0,1,1.15-17.23,36.32,36.32,0,0,1,2.17-4.43,18,18,0,0,0-.51-17.91,24.52,24.52,0,0,1,3-30.6v-.62h29.91v.62a24.46,24.46,0,0,0-3,30.6,17.93,17.93,0,0,1,.5,17.91,34.92,34.92,0,0,0-2.17,4.43,26.2,26.2,0,0,0-1.15,17.23A19.72,19.72,0,0,0,414,919a18.13,18.13,0,0,1,1.63,16.72,27.52,27.52,0,0,0-1.93,7.12A27.84,27.84,0,0,0,418.08,961.65Z"/><path class="cls-5" d="M189.9,913.56V871.88a29.27,29.27,0,0,1,29.27-29.25h8.54v.62a24.47,24.47,0,0,0-3,30.6,18,18,0,0,1,.5,17.91,34.92,34.92,0,0,0-2.17,4.43,26.14,26.14,0,0,0-1.15,17.23,19.72,19.72,0,0,0,2.76,5.57,18.16,18.16,0,0,1,1.63,16.72,27.52,27.52,0,0,0-1.93,7.12,27.89,27.89,0,0,0,4.35,18.82h-9.56A29.25,29.25,0,0,1,189.9,932.4Z"/><path class="cls-5" d="M292,961.65h-29.7A28,28,0,0,1,258,942.83a28.32,28.32,0,0,1,1.92-7.12A18.16,18.16,0,0,0,258.29,919a20,20,0,0,1-2.77-5.57,26.2,26.2,0,0,1,1.15-17.23,37.77,37.77,0,0,1,2.16-4.43,17.93,17.93,0,0,0-.49-17.91,24.5,24.5,0,0,1,3-30.6v-.62H291v.62a24.52,24.52,0,0,0-3,30.6,18,18,0,0,1,.51,17.91,36.32,36.32,0,0,0-2.17,4.43,26.07,26.07,0,0,0-1.15,17.23A19.72,19.72,0,0,0,288,919a18.13,18.13,0,0,1,1.62,16.72,28.32,28.32,0,0,0-1.92,7.12A28,28,0,0,0,292,961.65Z"/><path class="cls-5" d="M444.88,961.65h-26.8a27.84,27.84,0,0,1-4.36-18.82,27.52,27.52,0,0,1,1.93-7.12A18.13,18.13,0,0,0,414,919a19.72,19.72,0,0,1-2.76-5.57,26.2,26.2,0,0,1,1.15-17.23,34.92,34.92,0,0,1,2.17-4.43,17.93,17.93,0,0,0-.5-17.91,24.46,24.46,0,0,1,3-30.6v-.62h26.8v.62a24.5,24.5,0,0,0-3,30.6,18,18,0,0,1,.5,17.91,36.32,36.32,0,0,0-2.17,4.43,26.07,26.07,0,0,0-1.14,17.23,19.72,19.72,0,0,0,2.76,5.57,18.13,18.13,0,0,1,1.62,16.72,27.56,27.56,0,0,0,2.43,25.94Z"/><path class="cls-5" d="M508.17,961.65H478.48a27.65,27.65,0,0,1-2.43-25.94A18.13,18.13,0,0,0,474.43,919a19.45,19.45,0,0,1-2.76-5.57,26.14,26.14,0,0,1,1.15-17.23,36.25,36.25,0,0,1,2.16-4.43,17.93,17.93,0,0,0-.49-17.91,24.5,24.5,0,0,1,3-30.6v-.62h29.69v.62a24.52,24.52,0,0,0-3,30.6,17.93,17.93,0,0,1,.5,17.91,37.83,37.83,0,0,0-2.17,4.43,26.14,26.14,0,0,0-1.14,17.23,19.43,19.43,0,0,0,2.75,5.57,18.13,18.13,0,0,1,1.63,16.72,27.5,27.5,0,0,0-1.92,7.12A27.89,27.89,0,0,0,508.17,961.65Z"/><path class="cls-5" d="M388.17,961.65H354.56a27.65,27.65,0,0,1-2.43-25.94A18.13,18.13,0,0,0,350.51,919a19.45,19.45,0,0,1-2.76-5.57,26,26,0,0,1,1.15-17.23,36.25,36.25,0,0,1,2.16-4.43,17.93,17.93,0,0,0-.51-17.91,24.51,24.51,0,0,1,3-30.6v-.62h33.6v.62a24.52,24.52,0,0,0-3,30.6,18,18,0,0,1,.51,17.91,36.32,36.32,0,0,0-2.17,4.43,26.07,26.07,0,0,0-1.15,17.23,19.72,19.72,0,0,0,2.76,5.57,18.13,18.13,0,0,1,1.62,16.72,28.32,28.32,0,0,0-1.92,7.12A28,28,0,0,0,388.17,961.65Z"/><path class="cls-5" d="M539,913.56V932.4a29.24,29.24,0,0,1-29.25,29.25h-1.57a27.89,27.89,0,0,1-4.35-18.82,27.5,27.5,0,0,1,1.92-7.12A18.13,18.13,0,0,0,504.11,919a19.43,19.43,0,0,1-2.75-5.57,26.14,26.14,0,0,1,1.14-17.23,37.83,37.83,0,0,1,2.17-4.43,17.93,17.93,0,0,0-.5-17.91,24.52,24.52,0,0,1,3-30.6v-.62h2.58A29.26,29.26,0,0,1,539,871.88v41.68Z"/><path class="cls-7" d="M553.92,907.21a9.11,9.11,0,0,0,2.71,6.48l-14.76-.13H539v-20c4.44,0,10,.06,14.88.08C553.91,898.78,553.92,903.51,553.92,907.21Z"/><path class="cls-3" d="M553.87,893.65c-.1-18.71-.32-42.91-.94-43.14-6-16.81-22.45-29.35-40.31-29.64l-23.73.49h-251l-23.74-.49c-17.86.29-34.35,12.83-40.31,29.64-.61.23-.84,24.45-.95,43.16,0,5.13,0,9.84,0,13.54a9.17,9.17,0,0,1-8.06,9.08.91.91,0,0,1-.23,0,9.18,9.18,0,0,1-10.22-7.88c-2.51-19.27-2.84-38.32-2.12-57.31a69.36,69.36,0,0,1,32-49.34l.11-.32a12.57,12.57,0,0,0,4.09.67H538.35a12.56,12.56,0,0,0,4.08-.67l.11.32a69.33,69.33,0,0,1,32,49.34,341.33,341.33,0,0,1-2.12,57.31,9.17,9.17,0,0,1-10.22,7.88.83.83,0,0,1-.22,0,9.18,9.18,0,0,1-8.07-9.08C553.92,903.51,553.91,898.78,553.87,893.65Z"/><path class="cls-5" d="M27.61,937.1l-5,9.54C15.72,943,12,934.86,12,927.06s3.54-15.48,8-22h.2a65,65,0,0,1,6.15,6.77l.12.09c-2.61,3.92-4.77,8.3-5,13S23.19,934.61,27.61,937.1Z"/><path class="cls-5" d="M77,900.12A18.13,18.13,0,0,0,60.58,894l0-.27c-.16-2.61-.32-5.23-1.21-7.1v-.13a30.15,30.15,0,0,1,15.37,1.54,22.66,22.66,0,0,1,12.55,12.4,21.26,21.26,0,0,1-.72,17.66l-6.15-1.39A18.16,18.16,0,0,0,77,900.12Z"/><path class="cls-3" d="M59.33,886.67c.89,1.87,1.05,4.49,1.21,7.1a46.94,46.94,0,0,0-34.13,18.05,65,65,0,0,0-6.15-6.77,129.81,129.81,0,0,0,8.67-10.75,11,11,0,0,0-1.07-10.17l-.2-.41,9.06-3.93a12.68,12.68,0,0,0,8.89,7.91A52.22,52.22,0,0,0,59.33,886.67Z"/><path class="cls-6" d="M36.72,879.79l-9.06,3.93L9.35,891.64,0,868.2c5.2-2.26,11.89-5.15,18.78-8.12l11.11-4.83,24.27-10.49,9.35,23.44Z"/><path class="cls-5" d="M161.49,551.66v12.86c-38.32,14-81.74,53.19-108.41,99.94a250.65,250.65,0,0,0-30.83,88.62,237.93,237.93,0,0,0,7.62,102.11l0,.06-11.11,4.83a250.2,250.2,0,0,1-8.43-108.71A262.62,262.62,0,0,1,42.63,658.5C71.74,607.49,119.26,565.1,161.49,551.66Z"/><path class="cls-1" d="M161.49,551.66V539.53A28.57,28.57,0,0,1,189.09,511q.67,51.28,1.37,102.59h-.4A28.57,28.57,0,0,1,161.49,585V551.66Z"/><path class="cls-1" d="M416.86,239.27a4.68,4.68,0,1,1-4.68,4.67A4.67,4.67,0,0,1,416.86,239.27Z"/><path class="cls-1" d="M331.52,239.27a4.68,4.68,0,1,1-4.67,4.67A4.66,4.66,0,0,1,331.52,239.27Z"/><path class="cls-1" d="M360,239.27a4.68,4.68,0,1,1-4.67,4.67A4.66,4.66,0,0,1,360,239.27Z"/><path class="cls-1" d="M217.76,239.27a4.68,4.68,0,1,1-4.67,4.67A4.67,4.67,0,0,1,217.76,239.27Z"/><path class="cls-4" d="M440.35,662.27h96q-.45,33.93-.91,68.11H440.35a21.24,21.24,0,0,1-21.25-21.25v-25.6A21.25,21.25,0,0,1,440.35,662.27Z"/><path class="cls-1" d="M502.18,239.27a4.68,4.68,0,1,1-4.68,4.67A4.67,4.67,0,0,1,502.18,239.27Z"/><path class="cls-1" d="M192.64,776.17H538.35a13,13,0,0,1,4.08,25.3,12.56,12.56,0,0,1-4.08.67H188.41a12.57,12.57,0,0,1-4.09-.67,13,13,0,0,1,4.09-25.3Z"/><path class="cls-1" d="M562.77,569.55l.18,15.62a28.56,28.56,0,0,1-26,28.77q.69-51.15,1.38-102.15a28.59,28.59,0,0,1,24.08,27.9l.2,17.65Z"/><path class="cls-1" d="M274.65,239.27a4.68,4.68,0,1,1-4.68,4.67A4.66,4.66,0,0,1,274.65,239.27Z"/><circle class="cls-1" cx="388.41" cy="243.94" r="4.67"/><path class="cls-6" d="M318.12,746a6.68,6.68,0,1,1-6.67,6.68A6.68,6.68,0,0,1,318.12,746Z"/><path class="cls-6" d="M342.17,746a6.68,6.68,0,1,1-6.68,6.68A6.68,6.68,0,0,1,342.17,746Z"/><path class="cls-3" d="M339.83,119.11a127.93,127.93,0,0,1,36.47-1.36c2.69.31,5.37.67,8.05,1.1A187.33,187.33,0,0,1,447.29,141a181.4,181.4,0,0,1,78.41,88.61H201.76a187.18,187.18,0,0,1,138.07-110.5Z"/><path class="cls-1" d="M311.3,289.41c18.84-.11,44.12-.11,44.12-.11H372s25.27,0,44.12.11c11.07,0,19.93.14,20.17.3,18.75,3.28,34,20.75,33.76,41.38-.21,8-.53,13.41-.8,16.78s-.48,4.73-.48,4.73a25.72,25.72,0,0,1-4.8,15.12,45.19,45.19,0,0,1-26.5,17.21,25.23,25.23,0,0,0-19.43,23.72l-.15,3.26s0,2.47.34,14.67c.41,15.06-8.51,29.12-22.68,34.23a34.36,34.36,0,0,1-12.74,2.06c-5.43.12-15.19.33-18.85.43h-.13l-19.25-.43a34.36,34.36,0,0,1-12.74-2.06c-14.17-5.11-23.1-19.17-22.68-34.23.33-12.2.33-14.67.33-14.67l-.13-3.26A25.25,25.25,0,0,0,290,384.93a45.21,45.21,0,0,1-26.52-17.21,24.52,24.52,0,0,1-3.58-7.18,26.58,26.58,0,0,1-1.2-7.94s-.85-5.44-1.28-21.51c-.27-20.63,15-38.1,33.76-41.38C291.37,289.55,300.23,289.46,311.3,289.41Zm122.26,47a9.68,9.68,0,1,0-9.68,9.68A9.68,9.68,0,0,0,433.56,336.44Zm-54,23.69h-5.34c0,5.57-2.73,11.57-10.35,11.66h-.1a10.26,10.26,0,0,1-7.06-3.15,11.21,11.21,0,0,1-3.45-7.84h-5.34a16.56,16.56,0,0,0,5,11.63,15.69,15.69,0,0,0,10.85,4.7h.14C373.27,377,379.55,370.19,379.55,360.13Zm-66.29-23.69a9.68,9.68,0,1,0-9.68,9.68A9.68,9.68,0,0,0,313.26,336.44Z"/><path class="cls-5" d="M332.89,522.75V490a5,5,0,0,1,10,0v32.72a5,5,0,0,1-10,0Z"/><path class="cls-5" d="M350.49,522.75V490a5,5,0,1,1,10,0v32.72a5,5,0,1,1-10,0Z"/><path class="cls-5" d="M367,522.75V490a5,5,0,0,1,10,0v32.72a5,5,0,0,1-10,0Z"/><path class="cls-5" d="M384.54,522.75V490a5,5,0,0,1,10,0v32.72a5,5,0,0,1-10,0Z"/><path class="cls-7" d="M364.9,463.32l-.91,0c3.66-.1,13.42-.31,18.85-.43a34.36,34.36,0,0,0,12.74-2.06c14.17-5.11,23.09-19.17,22.68-34.23-.34-12.2-.34-14.67-.34-14.67l.15-3.26a25.23,25.23,0,0,1,19.43-23.72A45.19,45.19,0,0,0,464,367.72a25.72,25.72,0,0,0,4.8-15.12s.21-1.37.48-4.73.59-8.74.8-16.78c.27-20.63-15-38.1-33.76-41.38-.24-.16-9.1-.25-20.17-.3v-6c0-.24,0-.47,0-.71,13.52.07,18.84.22,21.31.58v-.1c22.72,4,39.6,24.61,39.31,48l-1.28,21.52a32.28,32.28,0,0,1-6.07,18.95,51.78,51.78,0,0,1-30.48,19.82,18.48,18.48,0,0,0-14.19,17.47l-.14,3.1c0,.63.06,3.81.34,14.37.5,18.3-10.38,34.67-27.09,40.69a41,41,0,0,1-14,2.47h-1.07l-12.9.29V470H357.54v-.16l-12.9-.29h-1.07a41,41,0,0,1-14-2.47c-16.7-6-27.58-22.39-27.09-40.69.29-10.53.33-13.73.33-14.37l-.13-3.1a18.48,18.48,0,0,0-14.2-17.47A51.87,51.87,0,0,1,258,371.64a32.19,32.19,0,0,1-6-18.95l-1.28-21.42c-.31-23.52,16.59-44.17,39.3-48.13v.1c2.11-.3,11.16-.46,21.3-.54,0,.23,0,.44,0,.67v6c-11.07,0-19.93.14-20.16.3-18.76,3.28-34,20.75-33.76,41.38.43,16.07,1.28,21.51,1.28,21.51a26.58,26.58,0,0,0,1.2,7.94,24.52,24.52,0,0,0,3.58,7.18A45.21,45.21,0,0,0,290,384.93a25.25,25.25,0,0,1,19.43,23.72l.13,3.26s0,2.47-.33,14.67c-.42,15.06,8.51,29.12,22.68,34.23a34.36,34.36,0,0,0,12.74,2.06l19.25.43-1.3,0Z"/><path class="cls-8" d="M364.9,463.32h-2.34l1.3,0H364Z"/><path class="cls-5" d="M416.13,282.66c0,.24,0,.47,0,.71v6c-18.85-.11-44.12-.11-44.12-.11H355.42s-25.28,0-44.12.11v-6c0-.23,0-.44,0-.67a14.5,14.5,0,0,1,14.48-13.82h75.88A14.49,14.49,0,0,1,416.13,282.66Z"/><path class="cls-3" d="M303.58,349.75a13.32,13.32,0,1,1,13.31-13.31A13.32,13.32,0,0,1,303.58,349.75Zm0-22.62a9.31,9.31,0,1,0,9.3,9.31A9.32,9.32,0,0,0,303.58,327.13Z"/><path class="cls-3" d="M423.6,349.75a13.32,13.32,0,1,1,13.31-13.31A13.32,13.32,0,0,1,423.6,349.75Zm0-22.62a9.31,9.31,0,1,0,9.3,9.31A9.32,9.32,0,0,0,423.6,327.13Z"/><circle class="cls-9" cx="303.58" cy="336.44" r="9.68" transform="translate(-77 582.42) rotate(-80.81)"/><path class="cls-5" d="M303.58,330.87a5.57,5.57,0,1,1-5.56,5.57A5.56,5.56,0,0,1,303.58,330.87Z"/><circle class="cls-9" cx="423.88" cy="336.44" r="9.68"/><path class="cls-7" d="M379.55,360.13c0,10.06-6.28,16.88-15.63,17h-.14a15.69,15.69,0,0,1-10.85-4.7,16.56,16.56,0,0,1-5-11.63Z"/><path class="cls-5" d="M423.73,330.87a5.57,5.57,0,1,1-5.56,5.57A5.56,5.56,0,0,1,423.73,330.87Z"/><circle class="cls-1" cx="231.04" cy="362.91" r="14.09"/><circle class="cls-1" cx="497.89" cy="362.91" r="14.09"/></g><g id="Layer_3" data-name="Layer 3"><path class="cls-1" d="M285.54,733.25H191.73a1.58,1.58,0,0,1,0-3.15h93.81a19.7,19.7,0,0,0,19.68-19.68v-25.6a19.7,19.7,0,0,0-19.68-19.68H190.68a1.58,1.58,0,1,1,0-3.15h94.86a22.85,22.85,0,0,1,22.83,22.83v25.6A22.85,22.85,0,0,1,285.54,733.25Z"/><path class="cls-1" d="M534.16,732H440.35a22.86,22.86,0,0,1-22.83-22.84V683.52a22.85,22.85,0,0,1,22.83-22.83h98a1.58,1.58,0,1,1,0,3.15h-98a19.7,19.7,0,0,0-19.68,19.68v25.59a19.71,19.71,0,0,0,19.68,19.69h93.81a1.58,1.58,0,0,1,0,3.15Z"/><path class="cls-1" d="M526.33,231.18h-326a1.58,1.58,0,0,1,0-3.15h326a1.58,1.58,0,1,1,0,3.15Z"/><path class="cls-1" d="M538.68,419.78h-112a1.58,1.58,0,0,1,0-3.15h112a1.58,1.58,0,1,1,0,3.15Z"/><path class="cls-1" d="M301.27,419.78H188a1.58,1.58,0,1,1,0-3.15H301.27a1.58,1.58,0,0,1,0,3.15Z"/><path class="cls-10" d="M228.74,963.23a1.61,1.61,0,0,1-1.32-.7,29.49,29.49,0,0,1-4.6-19.9,29.09,29.09,0,0,1,2-7.53,16.49,16.49,0,0,0-1.46-15.19,21.47,21.47,0,0,1-3-6,27.59,27.59,0,0,1,1.19-18.27,38.15,38.15,0,0,1,2.27-4.64,16.39,16.39,0,0,0-.46-16.26,26.09,26.09,0,0,1,3.19-32.58,1.57,1.57,0,0,1,2.23,2.22A22.93,22.93,0,0,0,226.05,873a19.41,19.41,0,0,1,.55,19.54,33.3,33.3,0,0,0-2.08,4.25,24.42,24.42,0,0,0-1.1,16.16,18.52,18.52,0,0,0,2.54,5.14,19.78,19.78,0,0,1,1.8,18.23,25.77,25.77,0,0,0-1.82,6.72,26.31,26.31,0,0,0,4.1,17.74,1.58,1.58,0,0,1-1.3,2.45Z"/><path class="cls-10" d="M262.34,963.23a1.58,1.58,0,0,1-1.31-.7,29.55,29.55,0,0,1-4.61-19.9,29,29,0,0,1,2-7.53A16.49,16.49,0,0,0,257,919.91a21.2,21.2,0,0,1-3-6,27.47,27.47,0,0,1,1.19-18.27,35.46,35.46,0,0,1,2.27-4.64,16.39,16.39,0,0,0-.47-16.26,26.07,26.07,0,0,1,3.2-32.58,1.57,1.57,0,0,1,2.23,2.22A22.93,22.93,0,0,0,259.66,873a19.43,19.43,0,0,1,.55,19.54,33.3,33.3,0,0,0-2.08,4.25A24.43,24.43,0,0,0,257,913a18.28,18.28,0,0,0,2.55,5.14,19.81,19.81,0,0,1,1.79,18.23,26,26,0,0,0,2.29,24.46,1.58,1.58,0,0,1-1.31,2.45Z"/><path class="cls-10" d="M292,963.23a1.58,1.58,0,0,1-1.31-.7,29.55,29.55,0,0,1-4.61-19.9,28.72,28.72,0,0,1,2-7.53,16.49,16.49,0,0,0-1.46-15.19,21.23,21.23,0,0,1-3-6,27.54,27.54,0,0,1,1.2-18.27,35.46,35.46,0,0,1,2.27-4.64,16.39,16.39,0,0,0-.47-16.26,26.07,26.07,0,0,1,3.2-32.58,1.57,1.57,0,0,1,2.23,2.22A22.93,22.93,0,0,0,289.35,873a19.43,19.43,0,0,1,.54,19.54,34.6,34.6,0,0,0-2.07,4.25A24.37,24.37,0,0,0,286.71,913a18.28,18.28,0,0,0,2.55,5.14,19.81,19.81,0,0,1,1.79,18.23,26,26,0,0,0,2.29,24.46,1.58,1.58,0,0,1-1.31,2.45Z"/><path class="cls-10" d="M325.63,963.23a1.6,1.6,0,0,1-1.31-.7,29.55,29.55,0,0,1-4.61-19.9,29,29,0,0,1,2-7.53,16.49,16.49,0,0,0-1.46-15.19,21.47,21.47,0,0,1-3-6,27.53,27.53,0,0,1,1.19-18.27,36.06,36.06,0,0,1,2.27-4.64,16.39,16.39,0,0,0-.46-16.26,26,26,0,0,1,3.19-32.58,1.57,1.57,0,0,1,2.23,2.22A22.93,22.93,0,0,0,323,873a19.43,19.43,0,0,1,.55,19.54,35.25,35.25,0,0,0-2.08,4.24,24.45,24.45,0,0,0-1.1,16.17,18.12,18.12,0,0,0,2.54,5.14,19.78,19.78,0,0,1,1.79,18.23,25.75,25.75,0,0,0-1.81,6.72,26.31,26.31,0,0,0,4.1,17.74,1.57,1.57,0,0,1-.43,2.18A1.59,1.59,0,0,1,325.63,963.23Z"/><path class="cls-10" d="M354.57,963.23a1.61,1.61,0,0,1-1.32-.7,29.55,29.55,0,0,1-4.61-19.9,29.11,29.11,0,0,1,2-7.53,16.49,16.49,0,0,0-1.46-15.19,21.47,21.47,0,0,1-3-6,27.53,27.53,0,0,1,1.19-18.27A36.74,36.74,0,0,1,349.7,891a16.39,16.39,0,0,0-.46-16.26,26.09,26.09,0,0,1,3.19-32.58,1.57,1.57,0,0,1,2.23,2.22A22.93,22.93,0,0,0,351.88,873a19.41,19.41,0,0,1,.55,19.54,33.3,33.3,0,0,0-2.08,4.25,24.42,24.42,0,0,0-1.1,16.16,18.25,18.25,0,0,0,2.54,5.14,19.81,19.81,0,0,1,1.8,18.23,25.39,25.39,0,0,0-1.82,6.72,26.31,26.31,0,0,0,4.1,17.74,1.58,1.58,0,0,1-1.3,2.45Z"/><path class="cls-10" d="M388.17,963.23a1.58,1.58,0,0,1-1.31-.7,29.55,29.55,0,0,1-4.61-19.9,29,29,0,0,1,2-7.53,16.49,16.49,0,0,0-1.46-15.19,21.5,21.5,0,0,1-3-6,27.54,27.54,0,0,1,1.2-18.27A37.32,37.32,0,0,1,383.3,891a16.37,16.37,0,0,0-.46-16.26,26.07,26.07,0,0,1,3.2-32.58,1.57,1.57,0,0,1,2.23,2.22A22.93,22.93,0,0,0,385.49,873a19.41,19.41,0,0,1,.54,19.54,33.72,33.72,0,0,0-2.07,4.24A24.4,24.4,0,0,0,382.85,913a18.15,18.15,0,0,0,2.55,5.14,19.81,19.81,0,0,1,1.79,18.23,26,26,0,0,0,2.29,24.46,1.58,1.58,0,0,1-1.31,2.45Z"/><path class="cls-10" d="M444.88,963.23a1.58,1.58,0,0,1-1.31-.7,29.55,29.55,0,0,1-4.61-19.9,29.11,29.11,0,0,1,2-7.53,16.49,16.49,0,0,0-1.46-15.19,21.2,21.2,0,0,1-3-6,27.47,27.47,0,0,1,1.19-18.27A36.74,36.74,0,0,1,440,891a16.39,16.39,0,0,0-.47-16.26,26.07,26.07,0,0,1,3.2-32.58,1.57,1.57,0,0,1,2.23,2.22A22.93,22.93,0,0,0,442.2,873a19.43,19.43,0,0,1,.55,19.54,34.54,34.54,0,0,0-2.08,4.24,24.39,24.39,0,0,0-1.1,16.17,18.25,18.25,0,0,0,2.54,5.14,19.78,19.78,0,0,1,1.79,18.23,25.75,25.75,0,0,0-1.81,6.72,26.31,26.31,0,0,0,4.1,17.74,1.57,1.57,0,0,1-.43,2.18A1.59,1.59,0,0,1,444.88,963.23Z"/><path class="cls-10" d="M418.08,963.23a1.58,1.58,0,0,1-1.31-.7,29.55,29.55,0,0,1-4.61-19.9,28.72,28.72,0,0,1,2-7.53,16.47,16.47,0,0,0-1.47-15.19,21.47,21.47,0,0,1-3-6,27.54,27.54,0,0,1,1.2-18.27,35.43,35.43,0,0,1,2.27-4.64,16.39,16.39,0,0,0-.47-16.26,26.07,26.07,0,0,1,3.2-32.58,1.57,1.57,0,0,1,2.23,2.22A22.93,22.93,0,0,0,415.4,873a19.41,19.41,0,0,1,.54,19.54,34.44,34.44,0,0,0-2.07,4.24A24.4,24.4,0,0,0,412.76,913a18.28,18.28,0,0,0,2.55,5.14,19.81,19.81,0,0,1,1.79,18.23,26,26,0,0,0,2.29,24.46,1.58,1.58,0,0,1-1.31,2.45Z"/><path class="cls-10" d="M478.49,963.23a1.58,1.58,0,0,1-1.31-.7,29.44,29.44,0,0,1-4.61-19.9,29,29,0,0,1,2-7.53,16.47,16.47,0,0,0-1.46-15.19,21.47,21.47,0,0,1-3-6,27.59,27.59,0,0,1,1.19-18.27,36.77,36.77,0,0,1,2.27-4.64,16.39,16.39,0,0,0-.46-16.26,26.09,26.09,0,0,1,3.19-32.58,1.57,1.57,0,1,1,2.23,2.22A22.93,22.93,0,0,0,475.8,873a19.41,19.41,0,0,1,.55,19.54,36.19,36.19,0,0,0-2.08,4.25,24.42,24.42,0,0,0-1.1,16.16,18.28,18.28,0,0,0,2.55,5.14,19.81,19.81,0,0,1,1.79,18.23,26,26,0,0,0,2.29,24.46,1.58,1.58,0,0,1-1.31,2.45Z"/><path class="cls-10" d="M508.18,963.23a1.61,1.61,0,0,1-1.32-.7,29.49,29.49,0,0,1-4.6-19.9,29.09,29.09,0,0,1,2-7.53,16.49,16.49,0,0,0-1.46-15.19,21.47,21.47,0,0,1-3-6A27.6,27.6,0,0,1,501,895.61a36.77,36.77,0,0,1,2.27-4.64,16.39,16.39,0,0,0-.46-16.26A26.09,26.09,0,0,1,506,842.13a1.57,1.57,0,0,1,2.23,2.22A22.93,22.93,0,0,0,505.49,873a19.41,19.41,0,0,1,.55,19.54,34.69,34.69,0,0,0-2.08,4.25,24.43,24.43,0,0,0-1.1,16.16,18.52,18.52,0,0,0,2.54,5.14,19.78,19.78,0,0,1,1.8,18.23,25.39,25.39,0,0,0-1.82,6.72,26.31,26.31,0,0,0,4.1,17.74,1.58,1.58,0,0,1-1.3,2.45Z"/><path class="cls-1" d="M426.24,215.89H299.61a18.32,18.32,0,0,1-18.3-18.31V178.65a15.17,15.17,0,0,0-15.16-15.15H250.33a1.58,1.58,0,1,1,0-3.15h15.82a18.32,18.32,0,0,1,18.31,18.3v18.93a15.17,15.17,0,0,0,15.15,15.16H426.24a15.17,15.17,0,0,0,15.15-15.16V178.65a18.32,18.32,0,0,1,18.3-18.3h15.83a1.58,1.58,0,0,1,0,3.15H459.69a15.17,15.17,0,0,0-15.15,15.15v18.93A18.32,18.32,0,0,1,426.24,215.89Z"/></g></g></svg>