<svg xmlns="http://www.w3.org/2000/svg" viewBox="0 0 653.34 828.59"><defs><style>.cls-1{fill:#181b2f;}.cls-2{fill:#fdc979;}.cls-3{fill:#f89345;}.cls-4{fill:#45d1f8;}.cls-5{fill:#5cffe6;}.cls-6{fill:#fff;}.cls-7{fill:#ed6b1f;}</style></defs><g id="Layer_2" data-name="Layer 2"><g id="Layer_2-2" data-name="Layer 2"><polygon class="cls-1" points="336.26 783.95 332.98 795.78 333.41 801.48 355.32 807.39 405.05 794.69 405.7 788.33 403.51 783.95 398.26 776.94 336.26 783.95"/><polygon class="cls-1" points="146.07 742.02 127.75 799.33 200.38 810.65 203.42 801.34 203.72 796.11 200.05 766.01 146.07 742.02"/><path class="cls-2" d="M450.09,816.75c1.67,3.33,1.79,7.43.32,11.84q-60-5.33-119.87-10.68c-1.47-4.31-.61-11.13,2.64-16.57a302.31,302.31,0,0,1,72.25-12.66A166.82,166.82,0,0,1,450.09,816.75Z"/><path class="cls-2" d="M203.42,801.34c3.26,5.44,4.12,12.26,2.65,16.57L86.21,828.59c-1.48-4.41-1.35-8.51.31-11.84a166.4,166.4,0,0,1,44.67-28.07A302.32,302.32,0,0,1,203.42,801.34Z"/><path class="cls-1" d="M653.34,360.22c-.38,19.53-13,38.3-30.91,46-1.65.7-3.65,1.3-5.13.28a2.24,2.24,0,0,1,.13-.27c-17.58-11.14-34.87-22.77-50.65-35.64l0-.14A74.34,74.34,0,0,1,571.89,347c2.94-7.51,7.33-14.75,13.72-19.31a52.4,52.4,0,0,0,10.79,4.67c-5.77,9.81-9.5,22-5,32.47,4.17,9.67,15.53,15.66,25.88,13.59a28.73,28.73,0,0,0,15.23-9.11,38.24,38.24,0,0,0,8.61-15.78A56.65,56.65,0,0,0,653.34,360.22Z"/><path class="cls-3" d="M617.3,406.55c-1.86,3.77-3.74,7.54-5.62,11.28a469.5,469.5,0,0,1-52-35.62l-.2-.13q3.6-5.73,7.26-11.44c15.78,12.87,33.07,24.5,50.65,35.64A2.24,2.24,0,0,0,617.3,406.55Z"/><path class="cls-2" d="M589,459.14l.17.11c-5.55,9.25-11.44,18.23-17.84,26.9a247.17,247.17,0,0,1-16.12,19.73,81.08,81.08,0,0,1-10.4-10.81c6.67-16.49,20.46-31.54,37.56-40.31A19.47,19.47,0,0,1,589,459.14Z"/><path class="cls-4" d="M501.81,542.65a67.93,67.93,0,0,0-9.18-17.13c1.33-22.12,10.53-43,20.53-62.74,14-27.71,29.83-54.41,46.36-80.7l.2.13a469.5,469.5,0,0,0,52,35.62c-7.1,14.12-14.44,28-22.49,41.42l-.17-.11a19.47,19.47,0,0,0-6.63-4.38c-17.1,8.77-30.89,23.82-37.56,40.31a81.08,81.08,0,0,0,10.4,10.81c-15,16.46-32.31,30.67-52.19,40.44C502.66,545.08,502.27,543.85,501.81,542.65Z"/><path class="cls-1" d="M83.5,755.25c.87,8,.36,16.45-3.19,23.47a52.65,52.65,0,0,0-11.72.88c.57-11.36-1.82-23.91-10.66-31.08a23.93,23.93,0,0,0-29.21,0,28.8,28.8,0,0,0-9.26,15.14,38.06,38.06,0,0,0-.27,18,56.21,56.21,0,0,0-14-.24c-8.76-17.47-6.33-39.94,5.95-55.15,1.13-1.39,2.62-2.83,4.41-2.61v.28c20.76,1.69,41.47,4,61.42,8l0,.16A74.76,74.76,0,0,1,83.5,755.25Z"/><path class="cls-3" d="M15.59,723.64q-.16-6.33-.29-12.64a472.8,472.8,0,0,1,62.57,7.4l.23,0c-.34,4.49-.72,9-1.09,13.49-20-4-40.66-6.3-61.42-8Z"/><path class="cls-5" d="M80.35,43.59l.09.15-.06.07-.11-.15S80.31,43.63,80.35,43.59Z"/><path class="cls-4" d="M72.32,33.62a17.68,17.68,0,1,1,6.55-5.27A17.61,17.61,0,0,1,72.32,33.62Z"/><path class="cls-2" d="M80.35,43.59s0,.07-.08.07l-8-10a17.73,17.73,0,0,0,6.55-5.27L87,37.43a.11.11,0,0,1-.06.06C84.73,39.57,82.56,41.61,80.35,43.59Z"/><path class="cls-5" d="M87,37.43l.22.23,0,0a1,1,0,0,0-.26-.19A.11.11,0,0,0,87,37.43Z"/><path class="cls-5" d="M86.9,37.49a1,1,0,0,1,.26.19l-6.72,6.06-.09-.15C82.56,41.61,84.73,39.57,86.9,37.49Z"/><path class="cls-2" d="M188.49,663.92c12.19,40.92,24.2,83.07,20.26,125.56a26.82,26.82,0,0,1-5,6.63c-7.69-2.23-15.52-4.19-23.45-5.82l0-.08q.08-6.51-.41-13v-.11c.22,0,.46,0,.68,0a13.52,13.52,0,1,0,0-27v-.49c-3.15-37.21-6.34-74.73-17-110.51v-.31c1.24,0,2.48.08,3.73.17h.09A92.63,92.63,0,0,1,188.49,663.92Z"/><circle class="cls-6" cx="180.56" cy="763.58" r="11.36" transform="translate(-487.05 351.32) rotate(-45)"/><path class="cls-1" d="M166.64,763.58a13.7,13.7,0,0,1,13.92-13.5h0a13.52,13.52,0,1,1,0,27c-.22,0-.46,0-.68,0A13.69,13.69,0,0,1,166.64,763.58Zm2.55,0a11.37,11.37,0,1,0,11.37-11.36A11.36,11.36,0,0,0,169.19,763.58Z"/><path class="cls-2" d="M148.18,639.38a142.81,142.81,0,0,1,15.42-.61v.31c10.66,35.78,13.85,73.3,17,110.51v.49h0a13.51,13.51,0,1,0-.68,27v.11q.5,6.49.41,13l0,.08a300.59,300.59,0,0,0-47.48-5.91,10.2,10.2,0,0,1-3.81-7.93,731.36,731.36,0,0,1,6.71-112.78,86.8,86.8,0,0,1,12.38-24.27A.22.22,0,0,0,148.18,639.38Z"/><path class="cls-1" d="M167.34,638.67v.27c-1.25-.09-2.49-.14-3.73-.17a142.81,142.81,0,0,0-15.42.61l0-.35A388,388,0,0,1,154,562.19a24.51,24.51,0,0,0,11.68,2.95,22.26,22.26,0,0,0,3.18-.21A725.8,725.8,0,0,0,167.34,638.67Z"/><circle class="cls-6" cx="356.06" cy="763.58" r="11.36" transform="translate(-468.91 934.68) rotate(-76.72)"/><path class="cls-1" d="M344.7,763.58a11.36,11.36,0,1,0,11.36-11.36A11.36,11.36,0,0,0,344.7,763.58Zm11.36,13.53a13.52,13.52,0,1,1-.05-27h.05a13.51,13.51,0,1,1,.66,27C356.5,777.11,356.28,777.11,356.06,777.11Z"/><path class="cls-2" d="M181.62,540.45c0,8.37-7.14,15.16-16,15.16s-16-6.79-16-15.16,7.17-15.17,16-15.17S181.62,532.07,181.62,540.45Z"/><path class="cls-2" d="M168.82,564.93a22.26,22.26,0,0,1-3.18.21,24.69,24.69,0,1,1,24.09-30h0a24.71,24.71,0,0,1-20.92,29.82Zm-3.18-9.32c8.84,0,16-6.79,16-15.16s-7.14-15.17-16-15.17-16,6.79-16,15.17S156.8,555.61,165.64,555.61Z"/><path class="cls-1" d="M229.47,511.4l-.39.31q-19.49,11.64-39,23.31l-.36.09h0a24.58,24.58,0,0,0-9.08-14.25l40.87-22.55A52.74,52.74,0,0,0,229.47,511.4Z"/><path class="cls-2" d="M356,749.59c3.15-37.21,6.36-74.73,17-110.51v-.31a138.18,138.18,0,0,1,15.42.63h.09a87.38,87.38,0,0,1,12.4,24.27,732.61,732.61,0,0,1,6.69,112.78,10.24,10.24,0,0,1-3.79,7.93,300.43,300.43,0,0,0-47.49,5.91l0-.08q-.09-6.51.4-13v-.11a13.51,13.51,0,1,0-.66-27H356Z"/><path class="cls-2" d="M356.72,777.2q-.48,6.49-.4,13l0,.08c-7.93,1.63-15.77,3.59-23.45,5.82a27.62,27.62,0,0,1-5-6.63c-3.94-42.49,8.08-84.64,20.26-125.56a93,93,0,0,1,21.08-25h.1c1.23-.09,2.47-.14,3.73-.17v.31c-10.66,35.78-13.87,73.3-17,110.51v.49a13.52,13.52,0,1,0,.05,27c.22,0,.44,0,.66,0Z"/><path class="cls-2" d="M387,540.45c0,8.37-7.16,15.16-16,15.16s-16-6.79-16-15.16,7.16-15.17,16-15.17S387,532.07,387,540.45Z"/><path class="cls-1" d="M382.64,562.19A388.77,388.77,0,0,1,388.47,639l0,.37a138.18,138.18,0,0,0-15.42-.63c-1.26,0-2.5.08-3.73.17l0-.27a728.72,728.72,0,0,0-1.49-73.74,22.63,22.63,0,0,0,3.2.21A24.46,24.46,0,0,0,382.64,562.19Z"/><path class="cls-2" d="M367.78,564.93a24.69,24.69,0,0,1-21.49-24.48,25.4,25.4,0,0,1,.58-5.34,24.66,24.66,0,1,1,24.11,30A22.63,22.63,0,0,1,367.78,564.93Zm3.2-9.32c8.82,0,16-6.79,16-15.16s-7.16-15.17-16-15.17-16,6.79-16,15.17S362.14,555.61,371,555.61Z"/><circle class="cls-6" cx="200.15" cy="412.19" r="9.8"/><path class="cls-1" d="M315.07,498.31q20.46,11.26,40.89,22.55a24.64,24.64,0,0,0-9.09,14.25l-.37-.09q-19.47-11.67-39-23.31l-.4-.31A52.67,52.67,0,0,0,315.07,498.31Z"/><path class="cls-3" d="M315.07,498.31a52.67,52.67,0,0,1-7.93,13.09c-.87,1.06-1.8,2.08-2.77,3.07a52.87,52.87,0,0,1-35.89,15.58h-.36a52.83,52.83,0,0,1-35.88-15.58c-1-1-1.89-2-2.77-3.07a52.74,52.74,0,0,1-12.11-34.34l11.78-.19c1.05,10.72,5.44,21.33,13.39,28.57,7.16,6.52,16.22,11.49,25.78,12.49,9.57-1,18.62-6,25.76-12.49,8-7.24,12.35-17.85,13.4-28.57l11.77.19A52.29,52.29,0,0,1,315.07,498.31Z"/><path class="cls-3" d="M307.47,476.87c-1.05,10.72-5.44,21.33-13.4,28.57-7.14,6.52-16.19,11.49-25.76,12.49-9.56-1-18.62-6-25.78-12.49-7.95-7.24-12.34-17.85-13.39-28.57,13.06-.2,26.11-.41,39.17-.56C281.36,476.46,294.42,476.67,307.47,476.87Z"/><path class="cls-6" d="M172.86,402.39a9.8,9.8,0,1,1-9.79,9.8A9.8,9.8,0,0,1,172.86,402.39Z"/><path class="cls-2" d="M400.19,395.58a52.94,52.94,0,0,0-32.61-17.12c-32.71-2.49-66-3.56-99.27-3.38-33.32-.18-66.58.89-99.27,3.38a53,53,0,0,0-32.62,17.12,47.7,47.7,0,0,0-12.33,34.84q1.16,24.18,2.29,48.35,45.48-1,91-1.71l11.78-.19c13.06-.2,26.11-.41,39.17-.56,13.05.15,26.11.36,39.16.56l11.77.19q45.5.72,91,1.71,1.13-24.19,2.29-48.35A47.75,47.75,0,0,0,400.19,395.58ZM172.86,422a9.8,9.8,0,1,1,9.8-9.79A9.79,9.79,0,0,1,172.86,422Zm27.29,0a9.8,9.8,0,1,1,9.79-9.79A9.79,9.79,0,0,1,200.15,422Z"/><path class="cls-1" d="M492.39,525.63l.24-.11a67.93,67.93,0,0,1,9.18,17.13,19.05,19.05,0,0,1-4-.53c-6.34-1.67-10.22-7.92-13.37-13.69a822.8,822.8,0,0,1-37.27-77.69c.38-8.73.8-17.55,1.23-26.39l.29,0Q468.35,475.9,492.39,525.63Z"/><path class="cls-5" d="M452.6,43.59s0,.07.08.07l-.11.15-.06-.07A1,1,0,0,0,452.6,43.59Z"/><path class="cls-5" d="M446.05,37.49a1.2,1.2,0,0,0-.27.19v0l.2-.23S446,37.49,446.05,37.49Z"/><path class="cls-4" d="M460.63,33.62a17.84,17.84,0,0,1-6.56-5.27,17.59,17.59,0,1,1,6.56,5.27Z"/><path class="cls-2" d="M452.6,43.59q-3.32-3-6.55-6.1s-.05,0-.08-.06l8.1-9.08a17.84,17.84,0,0,0,6.56,5.27l-7.95,10S452.63,43.63,452.6,43.59Z"/><path class="cls-5" d="M452.6,43.59a1,1,0,0,1-.09.15l-6.73-6.06a1.2,1.2,0,0,1,.27-.19Q449.29,40.61,452.6,43.59Z"/><path class="cls-3" d="M445.78,37.68l6.73,6.06q-21.33,40.23-46,78.51a242.53,242.53,0,0,0-30.95-28.09A627,627,0,0,1,445.78,37.68Z"/><path class="cls-2" d="M38.58,611.56c1.77,17.69-3.45,37.43-14.5,53.15a19.17,19.17,0,0,1-7.91-.8l-.21,0c.61-10.75,1.66-21.47,3.29-32.11a254.17,254.17,0,0,1,5.1-24.95A80.25,80.25,0,0,1,38.58,611.56Z"/><path class="cls-4" d="M64.47,556.91c1.93,1.19,4,2.34,6.16,3.42,9.12,20.2,10.67,42.92,11,65.09.48,31-1.13,62-3.55,93l-.23,0A472.8,472.8,0,0,0,15.3,711c-.28-15.79-.25-31.51.66-47.11l.21,0a19.17,19.17,0,0,0,7.91.8c11.05-15.72,16.27-35.46,14.5-53.15a80.25,80.25,0,0,0-14.23-4.73c5.59-21.52,14.32-42.18,27.41-60.08,1,1,1.93,1.9,2.93,2.79A64.32,64.32,0,0,0,64.47,556.91Z"/><path class="cls-6" d="M174,253.79a12.73,12.73,0,1,1,0-18A12.75,12.75,0,0,1,174,253.79Z"/><path class="cls-1" d="M156,253.79a12.73,12.73,0,1,0,0-18A12.75,12.75,0,0,0,156,253.79Zm9-35.66a26.65,26.65,0,1,1-26.65,26.64A26.64,26.64,0,0,1,165,218.13Z"/><path class="cls-1" d="M87.85,417.44c.21,4.14.41,8.29.6,12.41C81.07,443.16,77.68,458.31,75,473.33,70.1,501,67.24,529,64.47,556.91a64.32,64.32,0,0,1-9.78-7.37A669.47,669.47,0,0,1,65.35,475.9a164.62,164.62,0,0,1,22.49-60.12C87.84,416.33,87.84,416.89,87.85,417.44Z"/><path class="cls-2" d="M88.45,429.85c-.19-4.12-.39-8.27-.6-12.41,0-.55,0-1.11,0-1.66-.11-7.88,0-15.77,1.8-23.42,4-17,15.86-31.47,30.47-41s31.72-14.66,48.94-17.54a599.8,599.8,0,0,1,69.86-2.07,46.21,46.21,0,0,0,19.18,15.8,37.24,37.24,0,0,0,10.22,2.73,37.33,37.33,0,0,0,10.22-2.73,46.15,46.15,0,0,0,19.16-15.8,600,600,0,0,1,69.87,2.07c17.21,2.88,34.36,8,48.95,17.54s26.52,24,30.45,41c1.9,8.18,1.93,16.65,1.79,25.08l-.33,6.91c-.43,8.84-.85,17.66-1.23,26.39-.43,9.74-.83,19.36-1.16,28.81q-17.88-.42-35.79-.78,1.13-24.19,2.29-48.35a47.75,47.75,0,0,0-12.34-34.84,52.94,52.94,0,0,0-32.61-17.12c-32.71-2.49-66-3.56-99.27-3.38-33.32-.18-66.58.89-99.27,3.38a53,53,0,0,0-32.62,17.12,47.7,47.7,0,0,0-12.33,34.84q1.16,24.18,2.29,48.35-17.89.38-35.8.78C90,463.39,89.26,446.67,88.45,429.85Z"/><path class="cls-6" d="M377,253.79a12.73,12.73,0,1,1,0-18A12.75,12.75,0,0,1,377,253.79Z"/><path class="cls-1" d="M359,253.79a12.73,12.73,0,1,0,0-18A12.75,12.75,0,0,0,359,253.79Zm9-35.66a26.65,26.65,0,1,1-26.64,26.64A26.64,26.64,0,0,1,368,218.13Z"/><path class="cls-3" d="M338.41,244.77A29.56,29.56,0,1,1,368,274.33,29.55,29.55,0,0,1,338.41,244.77ZM368,218.13a26.65,26.65,0,1,0,26.64,26.64A26.64,26.64,0,0,0,368,218.13Z"/><path class="cls-3" d="M157.41,94.18a243.22,243.22,0,0,0-31,28.08Q101.82,84,80.44,43.74l6.72-6.06A624.13,624.13,0,0,1,157.41,94.18Z"/><path class="cls-2" d="M157.41,94.18q7.71-5.93,15.86-11.19a223.2,223.2,0,0,1,26.3-14.74l.4.87c.77,16,1.56,32.06,3.12,50A215.57,215.57,0,0,0,134,171.69a132.7,132.7,0,0,0-17.3,24.36,123.42,123.42,0,0,0-9.81,25.47c-7.87,28.65-8.28,59.44-.33,88.06q-12.39.59-24.74,1.22a5.42,5.42,0,0,1-2.63-.55l-.1-.06-3.67-4.51a181.36,181.36,0,0,1-4-21.82,192.56,192.56,0,0,1,2.49-61.09,197.49,197.49,0,0,1,13.94-43.08,217.44,217.44,0,0,1,38.61-57.43A243.22,243.22,0,0,1,157.41,94.18Z"/><path class="cls-1" d="M238.91,331.71q-.27-.33-.51-.69c-.5-9.51-.47-18.09-.17-26.6q14.11-.44,28.24-.78,16,.41,31.9.89c.31,8.48.33,17-.17,26.49q-.24.36-.51.69a46.15,46.15,0,0,1-19.16,15.8,37.33,37.33,0,0,1-10.22,2.73,37.24,37.24,0,0,1-10.22-2.73A46.21,46.21,0,0,1,238.91,331.71Z"/><path class="cls-3" d="M135.42,244.77A29.56,29.56,0,1,1,165,274.33,29.55,29.55,0,0,1,135.42,244.77ZM165,218.13a26.65,26.65,0,1,0,26.64,26.64A26.65,26.65,0,0,0,165,218.13Z"/><path class="cls-2" d="M375.54,94.16a242.53,242.53,0,0,1,30.95,28.09,217.77,217.77,0,0,1,38.62,57.44A196.92,196.92,0,0,1,459,222.77a192,192,0,0,1,2.49,61.09,177.51,177.51,0,0,1-4,21.82c-1.27,1.58-2.38,2.94-3.66,4.51l-.11.06a5.4,5.4,0,0,1-2.62.55q-12.36-.63-24.74-1.22c7.95-28.62,7.54-59.41-.33-88.06a122.36,122.36,0,0,0-9.83-25.47,130.82,130.82,0,0,0-17.3-24.36,215.2,215.2,0,0,0-69-52.58c1.57-17.93,2.35-34,3.12-50l.41-.87A223.2,223.2,0,0,1,359.68,83Q367.81,88.27,375.54,94.16Z"/><path class="cls-2" d="M106.6,309.58c-7.95-28.62-7.54-59.41.33-88.06a123.42,123.42,0,0,1,9.81-25.47A132.7,132.7,0,0,1,134,171.69a215.57,215.57,0,0,1,69.05-52.58c-1.56-17.93-2.35-34-3.12-50l-.4-.87a167.05,167.05,0,0,1,42.24-13.74l.07.45c0,46.1,1.43,92.17,5.22,138.52a164.73,164.73,0,0,0,19.37-.44,165,165,0,0,0,19.38.44c3.79-46.35,5.2-92.42,5.2-138.52l.08-.45a166.86,166.86,0,0,1,42.25,13.74l-.41.87c-.77,16-1.55,32.06-3.12,50a215.2,215.2,0,0,1,69,52.58,130.82,130.82,0,0,1,17.3,24.36A122.36,122.36,0,0,1,426,221.52c7.87,28.65,8.28,59.44.33,88.06Zm290.93-64.81A29.56,29.56,0,1,0,368,274.33,29.55,29.55,0,0,0,397.53,244.77Zm-203,0A29.56,29.56,0,1,0,165,274.33,29.56,29.56,0,0,0,194.54,244.77Z"/><path class="cls-3" d="M266.47,52.53a128.73,128.73,0,0,1,24.66,2l-.08.45c0,46.1-1.41,92.17-5.2,138.52a165,165,0,0,1-19.38-.44,164.73,164.73,0,0,1-19.37.44c-3.79-46.35-5.2-92.42-5.22-138.52l-.07-.45A128.6,128.6,0,0,1,266.47,52.53Z"/><path class="cls-1" d="M73.9,222.77c-9.31.6-18.59,1.2-27.49,1.91V286a15.11,15.11,0,0,0,1.63-.2l23.37-1.93A192.56,192.56,0,0,1,73.9,222.77Z"/><path class="cls-4" d="M42.2,225a28.65,28.65,0,0,0-13.42,12.82,38,38,0,0,0-4.21,18.89c-.21,7.07.8,14.43,4.64,20.36,3.58,5.52,10,9.49,17.2,8.91V224.68C45,224.79,43.58,224.89,42.2,225Z"/><path class="cls-1" d="M459,222.77a192,192,0,0,1,2.49,61.09l23.36,1.93c.27,0,.55.07.82.11V224.61C477.07,223.93,468.07,223.35,459,222.77Z"/><path class="cls-4" d="M508.38,256.72a37.94,37.94,0,0,0-4.22-18.89A28.54,28.54,0,0,0,490.73,225l-5-.4V285.9c7.5,1,14.31-3.09,18-8.82C507.58,271.15,508.58,263.79,508.38,256.72Z"/><path class="cls-3" d="M368.61,418.15H333.25a7.47,7.47,0,0,1-7.48-7.48h0a7.47,7.47,0,0,1,7.48-7.48h35.36a7.48,7.48,0,0,1,7.48,7.48h0A7.48,7.48,0,0,1,368.61,418.15Z"/></g><g id="Layer_3" data-name="Layer 3"><path class="cls-3" d="M106.71,311.54a1.59,1.59,0,0,1-1.52-1.15,167,167,0,0,1,.22-89.29,124.77,124.77,0,0,1,9.94-25.8,132.07,132.07,0,0,1,17.51-24.65,218.19,218.19,0,0,1,68.57-52.48c-1.51-17.56-2.29-33.53-3-49a1.57,1.57,0,0,1,3.14-.15c.76,15.74,1.55,32,3.12,50a1.57,1.57,0,0,1-.89,1.56,214.82,214.82,0,0,0-68.54,52.18,129.6,129.6,0,0,0-17.1,24.06,121.19,121.19,0,0,0-9.68,25.15,163.81,163.81,0,0,0-.22,87.61,1.59,1.59,0,0,1-1.1,1.94A1.52,1.52,0,0,1,106.71,311.54Z"/><path class="cls-1" d="M297.61,255.56a4.14,4.14,0,0,0-6.39-3.44,43,43,0,0,1-45.83,0,4.13,4.13,0,0,0-6.39,3.44v.09a4,4,0,0,0,1.39,3.09,43,43,0,0,0,55.83,0,4,4,0,0,0,1.39-3.09Z"/><path class="cls-3" d="M126.43,481.58a1.58,1.58,0,0,1-1.57-1.5l-2.35-49.58a49.69,49.69,0,0,1,12.73-36,54.9,54.9,0,0,1,33.6-17.64c36-2.75,74.09-3.84,113.16-3.24a1.58,1.58,0,0,1,0,3.15h0c-39-.59-76.92.49-112.79,3.23a51.6,51.6,0,0,0-31.57,16.6,46.47,46.47,0,0,0-11.94,33.69L128,479.93a1.57,1.57,0,0,1-1.5,1.64Z"/><path class="cls-3" d="M22.12,666.42a23.21,23.21,0,0,1-6.38-1,1.58,1.58,0,1,1,.87-3,18.69,18.69,0,0,0,6.58.83c10.2-14.78,15.36-33.56,13.91-50.58A78.17,78.17,0,0,0,24,608.36a1.58,1.58,0,0,1,.71-3.07,81.41,81.41,0,0,1,14.55,4.83,1.58,1.58,0,0,1,.93,1.29c1.82,18.2-3.71,38.47-14.79,54.2a1.53,1.53,0,0,1-1.05.65A13.92,13.92,0,0,1,22.12,666.42Z"/><path class="cls-3" d="M180.61,751.16a1.58,1.58,0,0,1-1.57-1.44c-3.1-36.59-6.3-74.42-16.95-110.18a1.57,1.57,0,1,1,3-.9c10.75,36.08,14,74.07,17.08,110.81a1.57,1.57,0,0,1-1.44,1.7Z"/><path class="cls-3" d="M180.29,791.78h0a1.57,1.57,0,0,1-1.56-1.59c.06-4.28-.08-8.61-.39-12.87a1.57,1.57,0,0,1,3.14-.23c.32,4.35.46,8.77.4,13.14A1.57,1.57,0,0,1,180.29,791.78Z"/><path class="cls-3" d="M165.64,557.19c-9.69,0-17.57-7.51-17.57-16.74S156,523.7,165.64,523.7s17.56,7.51,17.56,16.75S175.32,557.19,165.64,557.19Zm0-30.34c-8,0-14.42,6.1-14.42,13.6S157.68,554,165.64,554s14.41-6.1,14.41-13.59S173.59,526.85,165.64,526.85Z"/><path class="cls-7" d="M269.11,519.19a35.6,35.6,0,0,1-13.27-3.06,52.11,52.11,0,0,1-14.37-9.52c-7.8-7.11-12.89-18.09-14-30.13a1.58,1.58,0,0,1,3.14-.28c1,11.26,5.73,21.5,13,28.08a49,49,0,0,0,13.49,9c3.42,1.46,10,3.73,15.65,2.42,6.75-1.56,13.95-5.6,20.29-11.37,7.22-6.58,11.94-16.82,13-28.08a1.57,1.57,0,1,1,3.13.28c-1.07,12-6.16,23-14,30.13-4.76,4.33-12.38,9.95-21.7,12.11A19.09,19.09,0,0,1,269.11,519.19Z"/><path class="cls-3" d="M410.17,481.58h-.07a1.57,1.57,0,0,1-1.5-1.64L411,430.35A46.53,46.53,0,0,0,399,396.63,51.68,51.68,0,0,0,367.37,380c-35.79-2.73-73.74-3.82-112.71-3.22a1.58,1.58,0,0,1,0-3.15c39.07-.6,77.11.49,113.08,3.24a54.89,54.89,0,0,1,33.68,17.64,49.72,49.72,0,0,1,12.73,36l-2.36,49.55A1.57,1.57,0,0,1,410.17,481.58Z"/><path class="cls-3" d="M611.73,419.46a1.56,1.56,0,0,1-.8-.22,474.68,474.68,0,0,1-52.18-35.8,1.58,1.58,0,1,1,2-2.47,470.14,470.14,0,0,0,51.83,35.56,1.58,1.58,0,0,1-.81,2.93Z"/><path class="cls-3" d="M555.26,507.47a1.57,1.57,0,0,1-1-.38,82.27,82.27,0,0,1-10.64-11,1.57,1.57,0,0,1-.22-1.57c6.85-17,21.17-32.34,38.29-41.12a1.64,1.64,0,0,1,1.23-.09,20.35,20.35,0,0,1,7.2,4.74,1.57,1.57,0,1,1-2.18,2.27,18.74,18.74,0,0,0-5.43-3.79c-15.91,8.34-29.22,22.57-35.84,38.31a77.76,77.76,0,0,0,9.64,9.9,1.57,1.57,0,0,1-1,2.77Z"/><path class="cls-3" d="M356,751.16h-.14a1.56,1.56,0,0,1-1.43-1.7c3.11-36.74,6.32-74.73,17.07-110.81a1.58,1.58,0,0,1,3,.9c-10.65,35.77-13.86,73.59-16.95,110.18A1.58,1.58,0,0,1,356,751.16Z"/><path class="cls-3" d="M356.32,791.78a1.57,1.57,0,0,1-1.57-1.55c-.06-4.37.08-8.79.4-13.14a1.57,1.57,0,0,1,3.14.23c-.31,4.26-.45,8.59-.39,12.87a1.57,1.57,0,0,1-1.56,1.59Z"/><path class="cls-3" d="M371,557.19c-9.69,0-17.57-7.51-17.57-16.74S361.28,523.7,371,523.7s17.57,7.51,17.57,16.75S380.66,557.19,371,557.19Zm0-30.34c-8,0-14.42,6.1-14.42,13.6S363,554,371,554s14.42-6.1,14.42-13.59S378.92,526.85,371,526.85Z"/><path class="cls-3" d="M426.24,311.54a1.59,1.59,0,0,1-.43-.06,1.57,1.57,0,0,1-1.09-1.94,163.91,163.91,0,0,0-.22-87.61,121.41,121.41,0,0,0-9.69-25.15,128.67,128.67,0,0,0-17.1-24.06,214.82,214.82,0,0,0-68.54-52.18,1.6,1.6,0,0,1-.89-1.56c1.57-17.85,2.36-34.1,3.12-49.8V69a1.58,1.58,0,0,1,3.15.16v.14c-.74,15.42-1.52,31.35-3,48.84a218.11,218.11,0,0,1,68.58,52.48,132.45,132.45,0,0,1,17.5,24.65,124.2,124.2,0,0,1,10,25.8,167.1,167.1,0,0,1,.21,89.29A1.57,1.57,0,0,1,426.24,311.54Z"/></g></g></svg>